STARTFONT 2.1
COMMENT
COMMENT Converted from OpenType font "Font 90 Icons.ttf" by "otf2bdf 3.0".
COMMENT
FONT -FreeType-Font 90 Icons-Medium-R-Normal--43-310-100-100-P-161-ISO10646-1
SIZE 31 100 100
FONTBOUNDINGBOX 46 45 0 -9
STARTPROPERTIES 19
FOUNDRY "FreeType"
FAMILY_NAME "Font 90 Icons"
WEIGHT_NAME "Medium"
SLANT "R"
SETWIDTH_NAME "Normal"
ADD_STYLE_NAME ""
PIXEL_SIZE 43
POINT_SIZE 310
RESOLUTION_X 100
RESOLUTION_Y 100
SPACING "P"
AVERAGE_WIDTH 161
CHARSET_REGISTRY "ISO10646"
CHARSET_ENCODING "1"
FONT_ASCENT 36
FONT_DESCENT 8
COPYRIGHT "Typeface © (el-harrak.blogspot.com). <darrati10@gmail.com>. All Rights Reserved"
_OTF_FONTFILE "Font 90 Icons.ttf"
_OTF_PSNAME "Font 90 Icons"
ENDPROPERTIES
CHARS 242
STARTCHAR 0000
ENCODING 0
SWIDTH 0 0
DWIDTH 0 0
BBX 0 0 0 0
BITMAP
ENDCHAR
STARTCHAR 001D
ENCODING 29
SWIDTH 0 0
DWIDTH 0 0
BBX 0 0 0 0
BITMAP
ENDCHAR
STARTCHAR 0020
ENCODING 32
SWIDTH 255 0
DWIDTH 11 0
BBX 0 0 0 0
BITMAP
ENDCHAR
STARTCHAR 0021
ENCODING 33
SWIDTH 975 0
DWIDTH 42 0
BBX 42 41 0 -7
BITMAP
0001FFE00000
000FFF7C0000
003FFFCF0000
007FFFF18000
00FFFFF8C000
03FFFFF87000
07FFFFFC1000
07FFFFFC0800
0FFFE1FC0C00
1FFFC0FE0600
1FFFC0FE0200
3FFFC0FE0300
3FFFE1FE0100
7FFFFFFC0180
7FFFFFFC0180
7FFFFFF80080
7FFFFFF80080
FFFFFFF00080
FFFFFFE000C0
FFFFFF8000C0
FFFFE00000C0
FFFF000000C0
FFFE000000C0
7FFC00000080
7FF800000080
7FF000000080
7FF000000180
3FF00C000100
3FE01E000300
3FE03F000300
1FE03F000600
0FE01E000400
0FF00C000C00
07F000001800
03F000003000
01F800006000
00FC0000C000
007E00038000
001F000E0000
0007F3F80000
0000FFC00000
ENDCHAR
STARTCHAR 0022
ENCODING 34
SWIDTH 975 0
DWIDTH 42 0
BBX 42 33 0 -3
BITMAP
0001FFE00000
0003FFF00000
000300300000
000300300000
000300300000
0FFFFFFFFE00
7FFFFFFFFF80
7FFFFFFFFF80
FFFFFFFFFFC0
FFFFFFFFFFC0
FFFFFFFFFFC0
FFFFFFFFFFC0
FFFFFFFFFFC0
FFFFFFFFFFC0
FFFFFFFFFFC0
FFFFFFFFFFC0
FFFFFFFFFFC0
FFFFFFFFFFC0
FFFFFFFFFFC0
FFFFFFFFFFC0
FFFFFFFFFFC0
FFFFFFFFFFC0
FFFFFFFFFFC0
FFFFFFFFFFC0
FFFFFFFFFFC0
FFFFFFFFFFC0
FFFFFFFFFFC0
FFFFFFFFFFC0
FFFFFFFFFFC0
FFFFFFFFFFC0
7FFFFFFFFF80
7FFFFFFFFF80
1FFFFFFFFE00
ENDCHAR
STARTCHAR 0023
ENCODING 35
SWIDTH 975 0
DWIDTH 42 0
BBX 40 44 1 -9
BITMAP
0001800000
001FF80000
F87FFF0000
79FFFFE000
7BFFFFFC30
79FFFFFFF8
7DFFFFFFF8
7DFFFFFFF8
7DFFFFFFF8
3DFFFFFFF8
3CFFFFFFF8
3CFFFFFFFC
3EFFFFFFFC
3EFFFFFFFC
1EFFFFFFFC
1E7FFFFFFC
1E7FFFFFFC
1F7FFFFFFC
1F7FFFFFFE
1F7FFFFFFE
0F3FFFFFFE
0F3F003FFE
0F38000FFE
0FB00001FE
0FA000007F
0780000000
0780000000
0780000000
07C0000000
07C0000000
07C0000000
03C0000000
03C0000000
03C0000000
03E0000000
03E0000000
03E0000000
01E0000000
01E0000000
01E0000000
01F0000000
01F0000000
00F0000000
00F0000000
ENDCHAR
STARTCHAR 0024
ENCODING 36
SWIDTH 975 0
DWIDTH 42 0
BBX 42 41 0 -7
BITMAP
07C000000000
0FE000000000
1FF000000000
3FF800000000
7FFC00000000
7FFE00000000
FFFF00000000
FFFF80000000
7FFFE0000000
7FFFF0000000
3FFFF8000000
1FFFEC000000
0FFFFF000000
07FFFF800000
03FFFFC00000
01FFFF800000
00FFFF000000
007FFE000000
003FFC000000
003FFC000000
001FFE000000
000FE6000000
0007C3000000
000781800000
000300C00000
000100600000
000000300000
000000180000
0000000C0000
000000060000
000000030000
000000018000
00000000C000
000000006000
000000001000
000000000800
000000000400
000000000200
000000000100
000000000080
000000000040
ENDCHAR
STARTCHAR 0025
ENCODING 37
SWIDTH 975 0
DWIDTH 42 0
BBX 40 44 1 -8
BITMAP
0000180000
00007E0000
00007E0000
0000FF0000
0000FF0000
0003FFC000
000FFFF000
003FFFFC00
007FFFFE00
00FFFFFF88
7FFF7EFFFE
7FFC3C3FFE
FFF03C0FFF
FFE03C07FE
7FE0380FFE
7FF0180FFC
1FF8181FF8
1FFC187FF8
1FFF18FFFC
3F1FFFF8FC
3F03FFC0FC
3F00FF007C
3E00FF007C
3F00FF007C
3F03FFC0FC
3F3FFFFCFC
1FFE187FF8
1FFC183FF8
3FF8181FFC
7FF03C0FFE
7FE03C07FF
FFE03C07FF
7FF83C1FFF
7FFC7E3FFE
3DFFFFFFBC
00FFFFFF00
007FFFFE00
003FFFFC00
000FFFF000
0001FF8000
0000FF0000
00007E0000
00007E0000
00003C0000
ENDCHAR
STARTCHAR 0026
ENCODING 38
SWIDTH 975 0
DWIDTH 42 0
BBX 42 41 0 -7
BITMAP
0001FFE00000
000FFFFC0000
003F807F0000
007C000F8000
00F00003C000
01C07F80E000
0383FFE07000
0707FFF83800
0E1FFFFE1C00
1C3FFFFF0E00
1C7FFFFF8E00
38FFFFFF8700
30FFFFFFC700
71F3FFFFE380
71F9FFE7E380
63FCFFCFE180
63FE7F9FF180
E3FF3F3FF180
E3FF9E7FF1C0
E3FFCCFFF1C0
E3FFE1FFF1C0
E3FFF1FFF1C0
E3FFF3FFF1C0
63FFFFFFF180
63FFFFFFF180
71FFFFFFE380
71FFFFFFE380
30FFFFFFC300
38FFFFFFC700
387FFFFF8600
1C3FFFFF0E00
0E1FFFFE1C00
0E0FFFFC3C00
0707FFF07800
03C0FFC0F000
01E00801E000
00F80007C000
003E001F0000
001FFFFE0000
0007FFF80000
00007F800000
ENDCHAR
STARTCHAR 0027
ENCODING 39
SWIDTH 975 0
DWIDTH 42 0
BBX 42 42 0 -8
BITMAP
000080000000
001FFC000000
007FFF000000
01FFFFC00000
03FFFFE00000
07FFFFF00000
0FFFFFF80000
1FF80FFC0000
1FE003FC0000
3FC1C1FE0000
3F81C0FE0000
7F03C07F0000
7F03C03F0000
7E03C03F0000
7E1FFC3F8000
FE7FFF3F8000
FE7FFF3F8000
FE7FFF3F8000
FE3FFC3F8000
7E03C03F0000
7E03C03F0000
7F03C07F0000
7F83C0FF0000
3F81C0FE0000
3FC001FE0000
1FF007FF0000
0FFF7FFF8000
07FFFFFFC000
03FFFFFFE000
01FFFFFFF000
00FFFFFFF800
003FFEFFFC00
0007F07FFE00
0000003FFF00
0000001FFF80
0000000FFF80
00000007FF80
00000003FFC0
00000001FF80
00000000FF80
000000007F00
000000003E00
ENDCHAR
STARTCHAR 0028
ENCODING 40
SWIDTH 975 0
DWIDTH 42 0
BBX 42 42 0 -7
BITMAP
0003E0000000
003FFE000000
00FFFF800000
01FFFFC00000
03FFFFE00000
07FFFFF00000
0FFF7FF80000
1FF007FC0000
3FC003FE0000
3F8000FE0000
7F8000FF0000
7F00007F0000
7E00003F0000
7E00003F0000
FE3FFE3F8000
FE7FFF3F8000
FE7FFF3F8000
FE7FFF3F8000
FE00003F8000
7E00003F0000
7E00003F0000
7F00007F0000
3F8000FF0000
3FC001FE0000
3FE003FE0000
1FF007FF0000
0FFFFFFF8000
07FFFFFFC000
03FFFFFFE000
01FFFFFFF000
00FFFFFFF800
001FFCFFFC00
0001E07FFE00
0000003FFF00
0000001FFF80
0000000FFF80
00000007FFC0
00000003FFC0
00000001FFC0
00000000FF80
000000007F00
000000003E00
ENDCHAR
STARTCHAR 0029
ENCODING 41
SWIDTH 975 0
DWIDTH 42 0
BBX 42 31 0 -2
BITMAP
7FFFFFFFFF80
7FFFFFFFFF80
F800000007C0
FC0000000FC0
FE0000001FC0
EF0000003FC0
E78000007DC0
E3C00000F1C0
E1E00001E1C0
E0F00003C1C0
E078000781C0
E03C000F01C0
E01E001E01C0
E00F003C01C0
E007807801C0
E003C0F801C0
E007E1FC01C0
E00FF3FE01C0
E01EFFCE01C0
E03C7F8701C0
E0781E0381C0
E0F00001C1C0
E1E00000E1C0
E3C0000071C0
E780000039C0
EF0000001DC0
FE0000000FC0
FC00000007C0
FFFFFFFFFFC0
7FFFFFFFFF80
7FFFFFFFFF80
ENDCHAR
STARTCHAR 002A
ENCODING 42
SWIDTH 975 0
DWIDTH 42 0
BBX 36 44 3 -8
BITMAP
0000F00000
0001F00000
0001F80000
0001F80000
0001F80000
0001F80000
0001F80000
0001F80000
0001F80000
0001F80000
0001F80000
0181F83000
01E1F8F800
03F9FBF800
01FFFFF000
00FFFFF000
007FFFE000
003FFFC000
7FDFFFBFE0
3FEFFF7FC0
9FF7FEFF90
CFFBFDFF30
E7FDFBFE70
F3FEF7FCF0
F9FF0FF9F0
FCFFFFF3F0
FE7FFFE7F0
FFBFFFCFF0
FFDFFF9FF0
FFEFFF3FF0
FFF7FE7FF0
FFF3FCFFF0
FFE9F97FF0
FFDCF3BFF0
FFBE27DFF0
FF7FFFEFF0
FEFFFFF7F0
FDFFFFFBF0
FBFFFFFDF0
F7FFFFFEF0
EFFFFFFF70
DFFFFFFFB0
BFFFFFFFD0
3FFFFFFFC0
ENDCHAR
STARTCHAR 002B
ENCODING 43
SWIDTH 975 0
DWIDTH 42 0
BBX 42 41 0 -7
BITMAP
FFFFFFFFFFC0
FFFFFFFFFFC0
FFFFFFFFFFC0
FFFFFFFFFFC0
FFFFFFFFFFC0
F801FFF007C0
F807FFF807C0
F80FFFFC07C0
F80FFFFC07C0
F807FFF807C0
F803FFF007C0
F801FFE007C0
F981FFE067C0
FBC3FFF0F7C0
FFE7FFF9FFC0
FFFFFFFFFFC0
FFFFFFFFFFC0
FFFFFFFFFFC0
FFFFFFFFFFC0
FFFFFFFFFFC0
FFFFFFFFFFC0
FFFFFFFFFFC0
FFFFFFFFFFC0
FFFFFFFFFFC0
FFFFFFFFFFC0
FFEFFFFDFFC0
FBC7FFF8F7C0
F983FFF067C0
F881FFE047C0
F801FFE007C0
F803FFF007C0
F807FFF807C0
F80FFFFC07C0
F807FFF807C0
F803FFF007C0
FFFFFFFFFFC0
FFFFFFFFFFC0
FFFFFFFFFFC0
FFFFFFFFFFC0
FFFFFFFFFFC0
FFFFFFFFFFC0
ENDCHAR
STARTCHAR 002C
ENCODING 44
SWIDTH 975 0
DWIDTH 42 0
BBX 42 41 0 -7
BITMAP
00000003E000
000000FFF000
000001FFF800
000003FFFC00
000007FFFE00
00000FFFFF00
00001FFF3F80
00003FFE1FC0
00007FFE0F80
0000FFFF1F80
0001FFFFBF80
0003FFFFFF80
0007FFFFFF80
000FFFFFFF80
001FFFFFFF00
003FFFFFFF00
007FFFFFFF00
00F7FFFFFF00
01E3FFFFFE00
03F1FFFFFC00
07B8FFFFF800
0F1C7FFFF000
1F8E3FFFE000
3FC71FFFC000
FFE38FFF8000
7FF1C7FF0000
3FF8E3FE0000
1FFC71FC0000
0FFE38F80000
07FF1DF00000
03FF8FE00000
01FFC7C00000
00FFEF800000
007FFF000000
003FFE000000
001FFC000000
000FF8000000
0007F0000000
0003E0000000
0001C0000000
000080000000
ENDCHAR
STARTCHAR 002D
ENCODING 45
SWIDTH 975 0
DWIDTH 42 0
BBX 42 41 0 -7
BITMAP
0001FFE00000
000FFFFC0000
003FC1FF0000
007C001F8000
00F00003C000
01E00001E000
038000007000
07C000103800
0EE000181C00
1E7000381E00
1C3800780E00
381C00F80700
380E01F80700
700703F80380
700007F80380
7007FFF80380
6007FFF80180
E007FFF80180
E007FFF801C0
E007FFF801C0
E007FFF801C0
E007FFF801C0
E007FFF801C0
6007FFF80180
6007FFF80380
700007F80380
700003F80380
300003F80700
380001FA0700
380000FB0F00
1C00007B8E00
0E000039DC00
0F000018FC00
078000007800
03C00000F000
01E00001E000
00F80007C000
007F003F0000
001FFFFE0000
0007FFF80000
0000FF800000
ENDCHAR
STARTCHAR 002E
ENCODING 46
SWIDTH 975 0
DWIDTH 42 0
BBX 36 44 3 -8
BITMAP
0FFFFFFF80
1FFFFFFFC0
18000000C0
18000000C0
18000000C0
18000000C0
18000000C0
18000000C0
18000000C0
18000000C0
18000000C0
18000000C0
18000000C0
18000000C0
18000000C0
18000000C0
18000000C0
18000000C0
18000000C0
18000000C0
18000000C0
1FFFFFFFC0
1FFFFFFFC0
0000000000
0000000000
1FFFFFFFC0
1FFFFFFFC0
1FFFFFFFC0
1FFFFE03C0
1FFFFE03C0
1FFFFFFFC0
1FFFFFFFC0
1FFFFFFFC0
0FFFFFFF80
0000300000
0000300000
0000300000
0000300000
0000300000
000FFF8000
000FFF8000
FFFFFFFFF0
FFFFFFFFF0
000FFF8000
ENDCHAR
STARTCHAR 002F
ENCODING 47
SWIDTH 975 0
DWIDTH 42 0
BBX 42 43 0 -8
BITMAP
04003F000800
0E00FFC01800
0601FFE03800
0703FFE03800
0703FFF03000
0383FFF07000
6387FFF87180
E3C7FFF8F180
71C7FFF8E380
71C7FFF8E380
71C7FFF8E380
71E7FFF9E780
39E7FFF9E700
39E7FFF9C700
38E7FFF9C700
38E7FFF9C700
38E7FFF9C700
38E7FFF9C700
38E7FFF9C700
38E7FFF9C700
38E7FFF9C700
39E7FFF9C700
39E7FFF9E700
71E7FFF9E700
71C7FFF8E380
71C7FFF8E380
71C7FFF8E380
6383FFF0F180
E383FFF071C0
4381FFE07080
0700FFC03000
07007F803800
06007F803800
0E007F801800
04007F800800
00007F800000
00007F800000
00007F800000
00007F800000
00007F800000
00007F800000
00003F000000
00001E000000
ENDCHAR
STARTCHAR 0030
ENCODING 48
SWIDTH 975 0
DWIDTH 42 0
BBX 42 41 0 -7
BITMAP
0001FFE00000
000FFFFC0000
003FFFFF0000
007FFFFF8000
00FFFFFFC000
01FFFFFFE000
03FFFFFFF000
07F3FFF3F800
0FC3FFF0FC00
1F81FFE07E00
1F01FFE07E00
3F00FFC03F00
3E00FF801F00
7E007F801F80
7C003F000F80
7C003F000F80
7C007F800F80
7800F3C00780
F800E1C007C0
F801C0C007C0
FFFFC0FFFFC0
FFFFC0FFFFC0
FFFFE1FFFFC0
7FFFFFFFFF80
7FFFFFFFFF80
7FFFDEFFFF80
7FFF80FFFF80
3FFF807FFF00
3FFF003FFF00
3FFF003FFF00
1FFE001FFE00
1FFC001FFC00
0FFC000FFC00
07F8000FF800
03FC000FF000
01FF003FE000
00FFFFFFC000
007FFFFF8000
001FFFFE0000
0007FFF80000
0000FFC00000
ENDCHAR
STARTCHAR 0031
ENCODING 49
SWIDTH 975 0
DWIDTH 42 0
BBX 40 44 1 -8
BITMAP
00007E0000
0000FF0000
0000FF0000
0000FF0000
0000FF0000
0008FF1000
0038FF1800
0078FF1E00
01F8FF1F00
03F8FF1FC0
07F8FF1FE0
0FF8FF1FF0
0FF0FF0FF0
1FE0FF07F8
3FC0FF03FC
3F80FF01FC
7F00FF00FE
7F00FF00FE
7E00FF007E
FE00FF007F
FC00FF003F
FC00FF003F
FC00FF003F
FC00FF003F
FC00FF003F
FC0000003F
FC0000003F
FC0000003F
FC0000007F
FE0000007E
7E0000007E
7F000000FE
3F000001FC
3F800001FC
1FC00003F8
1FE00007F8
0FF8001FF0
07FE007FE0
03FFFFFFC0
01FFFFFF80
00FFFFFF00
007FFFFC00
001FFFF800
0003FFC000
ENDCHAR
STARTCHAR 0032
ENCODING 50
SWIDTH 975 0
DWIDTH 42 0
BBX 40 44 1 -8
BITMAP
0000180000
00007E0000
00007E0000
0000FF0000
0000FF0000
0000FE0000
0000FE0000
00007E0000
00007E0000
00007E0008
7E007C007E
7F003C00FE
FF803C03FF
FFC03C07FE
7FE0380FFE
7FF0181FFC
1FF8183FF8
07FC187FE0
01FE38FF00
001FFFF800
0003FF8000
0000FF0000
0000FF0000
0000FF0000
0003FFC000
003FFFFC00
01FE187FC0
0FFC183FF0
3FF8181FFC
7FF03C0FFE
7FE03C07FF
FFC03C03FF
FF803C01FF
7F007E00FE
3C007E003C
00007E0000
00007E0000
00007E0000
0000FE0000
0000FF0000
0000FF0000
00007E0000
00007E0000
00003C0000
ENDCHAR
STARTCHAR 0033
ENCODING 51
SWIDTH 975 0
DWIDTH 42 0
BBX 42 39 0 -6
BITMAP
000008000000
00000C000000
00000C000000
00001E000000
00001E000000
00003F000000
00003F000000
00007F800000
00007F800000
0000FFC00000
0000FFC00000
0001FFE00000
0001FFE00000
00FFFFFF8000
BFFFFFFFFF40
7FFFFFFFFF80
3FFFFFFFFF00
1FFFFFFFFE00
0FFFFFFFFC00
07FFFFFFF800
03FFFFFFF000
01FFFFFFE000
00FFFFFFC000
007FFFFF8000
003FFFFF0000
001FFFFE0000
003FFFFF0000
003FFFFF0000
003FFFFF0000
003FFFFF0000
003FFFFF0000
003FFFFF0000
007FF7FF8000
007FE1FF8000
007F807F8000
007E001F8000
007800078000
00E000018000
008000004000
ENDCHAR
STARTCHAR 0034
ENCODING 52
SWIDTH 975 0
DWIDTH 42 0
BBX 42 30 0 -1
BITMAP
1FFFFFFFFE00
3FFFFFFFFF00
1FFFFFFFFE00
4FFFFFFFFD80
E7FFFFFFFBC0
F3FFFFFFF7C0
F9FFFFFFEFC0
FCFFFFFFDFC0
FE7FFFFFBFC0
FF3FFFFF7FC0
FF9FFFFEFFC0
FFCFFFFDFFC0
FFF7FFFBFFC0
FFFBFFF7FFC0
FFFDFFEFFFC0
FFFCFFCFFFC0
FFF87F8FFFC0
FFF33F37FFC0
FFF79E7BFFC0
FFEFC1FDFFC0
FFDFFFFEFFC0
FFBFFFFF7FC0
FF7FFFFFBFC0
FEFFFFFFDFC0
FDFFFFFFEFC0
FBFFFFFFF7C0
F7FFFFFFFBC0
EFFFFFFFFD80
1FFFFFFFFE00
3FFFFFFFFF00
ENDCHAR
STARTCHAR 0035
ENCODING 53
SWIDTH 975 0
DWIDTH 42 0
BBX 42 33 0 -4
BITMAP
00000C000000
00001E1F8000
0000731F8000
0000E1DF8000
00038CFF8000
00071E3F8000
001C7F9F8000
0038FFC78000
0073FFE38000
01C7FFF8E000
039FFFFC7000
0E3FFFFF1C00
1CFFFFFF8E00
71FFFFFFE380
E1FFFFFFE1C0
01FFFFFFE000
01FFFFFFE000
01FFFFFFE000
01FFFFFFE000
01FF807FE000
01FF807FE000
01FF807FE000
01FF807FE000
01FF807FE000
01FF807FE000
01FF807FE000
01FF807FE000
01FF807FE000
01FF807FE000
01FF807FE000
01FF807FE000
01FF807FE000
00FF807FC000
ENDCHAR
STARTCHAR 0036
ENCODING 54
SWIDTH 975 0
DWIDTH 42 0
BBX 42 43 0 -8
BITMAP
01E00007C000
03F0000FE000
07F0000FE000
07F0000FE000
03F0000FE000
03F00007C000
00C000010000
000000000000
3FFE003FF800
7FFF007FFC00
7FFF807FFC00
FFFF80FFFE00
FFFF80FFFE00
EFFF80EFEE00
EFFF81FFFF00
EFFF81DFF700
EFFF81DFF700
EFFF83FFFF00
EFFF83BFFB80
EFFF83BFFB80
EFFF83BFFB80
EFFF87FFFFC0
EFFF837FFD80
EFFF807FFC00
6FFD80FFFE00
0F7C00FFFE00
0F7C00FFFE00
0F7C00FFFE00
0F7C01FFFF00
0F7C000EE000
0F7C000EE000
0F7C000EE000
0F7C000EE000
0F7C000EE000
0F7C000EE000
0F7C000EE000
0F7C000EE000
0F7C000EE000
0F7C000EE000
0F7C000EE000
0F7C000EE000
0F78000EE000
0738000EE000
ENDCHAR
STARTCHAR 0037
ENCODING 55
SWIDTH 975 0
DWIDTH 42 0
BBX 42 32 0 -2
BITMAP
000080000000
001FFC000000
00FFFF000000
01FC1F800000
03F80FE00000
07F00FF00000
0FF007F80000
1FF007F80000
3FF007FC0000
3FF00FFC0000
7FF80FFE0000
7FFC3FFE0000
783FFC0F0000
701FF8070000
E00FF8070000
E00FF0070000
E00FF0070000
E00FF8070000
F01FF8070000
783FFC0F0000
7C7E3F3E0000
7FF81FFE0000
3FF00FFE0000
3FF007FC0000
1FF007FC0000
1FF007F80000
0FF00FF80080
07F80FFC03C0
03FC1FDE1F80
01FFFF8FFF00
007FFE07F800
000FF8018000
ENDCHAR
STARTCHAR 0038
ENCODING 56
SWIDTH 975 0
DWIDTH 42 0
BBX 32 44 5 -8
BITMAP
3FFFFFFE
FFFFFFFF
FFFFFFFF
FFFFFFFF
E0000007
E0000007
E0000007
E0000007
E0000007
E0000007
E0000007
E0000007
FFFFFFFF
FFFFFFFF
FFFFFFFF
FFFFFFFF
E0781E07
E0781E07
E0781E07
E0781E07
E0781E07
FFFFFFFF
FFFFFFFF
FFFFFFFF
FFFFFFFF
F0781E07
E0781E07
E0781E07
E0781E07
E0781E07
F0781E0F
FFFFFFFF
FFFFFFFF
FFFFFFFF
F0FC3F0F
E0781E07
E0781E07
E0781E07
E0781E07
F0781E07
FFFFFFFF
FFFFFFFF
FFFFFFFF
FFFFFFFF
ENDCHAR
STARTCHAR 0039
ENCODING 57
SWIDTH 975 0
DWIDTH 42 0
BBX 42 40 0 -6
BITMAP
400000000000
F00000000000
F80000000000
7C0000000000
1E0000000000
0E0000000000
0F0FFFFFFFC0
078FFFFFFF80
038FFFFFFF80
0387FFFFFF00
01C7FFFFFF00
01C7FFFFFE00
01C7FFFFFE00
00E7FFFFFC00
00E7FFFFFC00
00E3FFFFF800
00F3FFFFF800
0073FFFFF000
0073FFFFF000
0073FFFFE000
0073FFFFE000
007000000000
007800000000
003800000000
003800000000
003800000000
003FFFFFFC00
003FFFFFFE00
003FFFFFFC00
000000000000
000000000000
000000000000
003E0001F800
007F0003FC00
007F8003FC00
007F8003FC00
007F8003FC00
007F8003FC00
007F0001F800
003E0000F000
ENDCHAR
STARTCHAR 003A
ENCODING 58
SWIDTH 975 0
DWIDTH 42 0
BBX 42 41 0 -6
BITMAP
0000007FC000
000001FFF000
000003FFF800
000007FFFC00
00000FFFFE00
00001FFE1F00
00001FFC0F00
00003FFC0F80
00003FFC0F80
00003FFC0F80
00003FFE1F80
00003FFFFFC0
00003FFFFFC0
00003FFFFF80
00003FFFFF80
00003FFFFF80
00001FFFFF80
00009FFFFF00
00018FFFFE00
0003CFFFFE00
0007E7FFFC00
000FF1FFF000
001FF8FFE000
003FFC0E0000
007FFF800000
00FFFF000000
01FFF8000000
03FFF8000000
07FFF8000000
0FFF80000000
1FFF80000000
3FF000000000
7FF000000000
7FF000000000
FFF000000000
FFF000000000
FFF000000000
7F8000000000
7F8000000000
3F8000000000
0F8000000000
ENDCHAR
STARTCHAR 003B
ENCODING 59
SWIDTH 975 0
DWIDTH 42 0
BBX 42 41 0 -7
BITMAP
00001E000000
00001E000000
00001E000000
00001E000000
00001E000000
00001E000000
00001E000000
00001E000000
00001E000000
00001E000000
00001E000000
00001E000000
00001E000000
00001E000000
00001E000000
00001E000000
00001E000000
00001E000000
00001E000000
FFFFFFFFFFC0
FFFFFFFFFFC0
FFFFFFFFFFC0
00001E000000
00001E000000
00001E000000
00001E000000
00001E000000
00001E000000
00001E000000
00001E000000
00001E000000
00001E000000
00001E000000
00001E000000
00001E000000
00001E000000
00001E000000
00001E000000
00001E000000
00001E000000
00001E000000
ENDCHAR
STARTCHAR 003C
ENCODING 60
SWIDTH 975 0
DWIDTH 42 0
BBX 42 33 0 -3
BITMAP
00000C000000
00001E000000
00001F000000
00003F000000
00007F800000
00007F800000
0000F3C00000
0000F3E00000
0001E1E00000
0003E1F00000
0003C0F00000
0007C0F80000
000780780000
000F003C0000
001F003E0000
001E001E0000
003E001F0000
003C000F0000
007800078000
00F80007C000
00F00003C000
01F00003E000
01E00001E000
03C00000F000
07C00000F800
078000007800
0F8000007C00
0F0000003C00
1E0000001E00
3E0000001F00
3C0000000F00
7C0000000F80
F800000007C0
ENDCHAR
STARTCHAR 003D
ENCODING 61
SWIDTH 975 0
DWIDTH 42 0
BBX 42 41 0 -7
BITMAP
0001FFE00000
000FE1F80000
003E001E0000
007000038000
00E00001C000
038000006000
070000003000
060000001800
0C3FFFC00C00
180F03E00E00
180F01F00600
300F00F80300
300F00F80300
600F00780100
600F00780180
600F00780180
400F00F80180
C00F00F00080
C00F03E000C0
C00F0FC000C0
C00FFE0000C0
C00F1F0000C0
C00F0F0000C0
400F0F800080
600F07C00180
600F03C00180
600F01E00180
300F01F00300
300F00F80300
300F00780600
180F803C0600
0C1FC03E0C00
0E7FF01F9C00
060000001800
030000007000
01C00000E000
00E00001C000
007800078000
001F003E0000
0007FFF80000
00007F800000
ENDCHAR
STARTCHAR 003E
ENCODING 62
SWIDTH 975 0
DWIDTH 42 0
BBX 42 41 0 -7
BITMAP
0001FFE00000
0007F3F80000
001E001E0000
007000078000
00E00001C000
038000006000
030000003000
06003FC21800
0C01F1FE0C00
1807803E0E00
180F000E0600
301E00060300
303C00070300
603C00030100
607800030180
607800000180
40F800000180
C0F800000080
C0F0000000C0
C0F0000000C0
C0F0000000C0
C0F0000000C0
C0F800000080
C0F800000080
60F800000180
607800000180
607C00000180
303C00010300
303E00030300
301F00060600
180F801C0600
0C03F0F00C00
0C00FFC01C00
060000003800
030000007000
01C00000E000
00E00001C000
007800078000
001F003E0000
0007FFF80000
00007F800000
ENDCHAR
STARTCHAR 003F
ENCODING 63
SWIDTH 975 0
DWIDTH 42 0
BBX 42 41 0 -7
BITMAP
0001FFE00000
0007FFF80000
001FFFFE0000
007FFFFF8000
00FFE1FFC000
01FE001FE000
03F80007F000
07E00001F800
0FC00000FC00
1F8000007E00
1F0000003E00
3F0000003F00
3E0000001F00
7C0000001F00
7C0000000F80
7C0000000F80
780000000780
780000000780
F80000000780
F800000007C0
F800000007C0
F800000007C0
F80000000780
780000000780
780000000F80
7C0000000F80
7C0000000F80
3E0000001F00
3E0000001F00
3F0000003F00
1F8000007E00
0F8000007C00
0FC00001FC00
07F00003F800
03F80007F000
01FE003FE000
00FFFFFFC000
007FFFFF0000
001FFFFE0000
0007FFF80000
0000FF800000
ENDCHAR
STARTCHAR 0040
ENCODING 64
SWIDTH 975 0
DWIDTH 42 0
BBX 42 41 0 -7
BITMAP
000008000000
00000C000000
00001C000000
00001E000000
00003E000000
00003F000000
00007F000000
00007F800000
0000FF800000
0000FFC00000
0001FFC00000
0001FFE00000
0003FFE00000
0003FFF00000
0007FFF00000
0007FFF80000
000FFFF80000
000FFFFC0000
001FFFFC0000
001FFFFE0000
003FFFFE0000
003FFFFF0000
007FFFFF0000
007FFFFF8000
00FFFFFF8000
00FFFFFFC000
01FFFFFFC000
01FFFFFFE000
03FFFFFFE000
03FFFFFFF000
07FFFFFFF000
07FFFFFFF800
0FFFFFFFF800
0FFFFFFFFC00
1FFFFFFFFC00
1FFFFFFFFE00
3FFFFFFFFE00
3FFFFFFFFF00
7FFFFFFFFF00
7FFFFFFFFF80
FFFFFFFFFFC0
ENDCHAR
STARTCHAR 0041
ENCODING 65
SWIDTH 975 0
DWIDTH 42 0
BBX 42 40 0 -6
BITMAP
800100000000
C00180000000
E001C0000000
F001E0000000
FC01F8000000
FE01FC000000
FF01FE000000
FFC1FF800000
FFE1FFC00000
FFF1FFE00000
FFFCFFF80000
FFFE7FFC0000
FFFF3FFE0000
FFFFCFFF8000
FFFFE7FFC000
FFFFF3FFE000
FFFFFCFFF800
FFFFFE7FFC00
FFFFFF3FFE00
FFFFFFCFFF00
FFFFFFE7FFC0
FFFFFF9FFF00
FFFFFF3FFE00
FFFFFE7FF800
FFFFF9FFF000
FFFFF3FFE000
FFFFE7FF8000
FFFF9FFF0000
FFFF3FFE0000
FFFE7FF80000
FFF9FFF00000
FFF1FFE00000
FFE1FF800000
FF81FF000000
FF01FE000000
FE01F8000000
F801F0000000
F001E0000000
E00180000000
800100000000
ENDCHAR
STARTCHAR 0042
ENCODING 66
SWIDTH 975 0
DWIDTH 42 0
BBX 36 44 3 -8
BITMAP
8000001FF0
C000001FF0
F000001FF0
F800001FF0
FE00001FF0
FF00001FF0
FFC0001FF0
FFF0001FF0
FFF8001FF0
FFFE001FF0
FFFF801FF0
FFFFC01FF0
FFFFF01FF0
FFFFFC1FF0
FFFFFE1FF0
FFFFFF9FF0
FFFFFFDFF0
FFFFFFFFF0
FFFFFFFFF0
FFFFFFFFF0
FFFFFFFFF0
FFFFFFFFF0
FFFFFFFFF0
FFFFFFFFF0
FFFFFFFFF0
FFFFFFFFF0
FFFFFFFFF0
FFFFFFFFF0
FFFFFFDFF0
FFFFFF1FF0
FFFFFE1FF0
FFFFF81FF0
FFFFE01FF0
FFFFC01FF0
FFFF001FF0
FFFE001FF0
FFF8001FF0
FFE0001FF0
FFC0001FF0
FF00001FF0
FC00001FF0
F800001FF0
E000001FF0
8000001FF0
ENDCHAR
STARTCHAR 0043
ENCODING 67
SWIDTH 975 0
DWIDTH 42 0
BBX 32 44 5 -8
BITMAP
FFFC3FFF
FFFC3FFF
FFFC3FFF
FFFC3FFF
FFFC3FFF
FFFC3FFF
FFFC3FFF
FFFC3FFF
FFFC3FFF
FFFC3FFF
FFFC3FFF
FFFC3FFF
FFFC3FFF
FFFC3FFF
FFFC3FFF
FFFC3FFF
FFFC3FFF
FFFC3FFF
FFFC3FFF
FFFC3FFF
FFFC3FFF
FFFC3FFF
FFFC3FFF
FFFC3FFF
FFFC3FFF
FFFC3FFF
FFFC3FFF
FFFC3FFF
FFFC3FFF
FFFC3FFF
FFFC3FFF
FFFC3FFF
FFFC3FFF
FFFC3FFF
FFFC3FFF
FFFC3FFF
FFFC3FFF
FFFC3FFF
FFFC3FFF
FFFC3FFF
FFFC3FFF
FFFC3FFF
FFFC3FFF
FFFC3FFF
ENDCHAR
STARTCHAR 0044
ENCODING 68
SWIDTH 975 0
DWIDTH 42 0
BBX 36 44 3 -8
BITMAP
8000000000
C000000000
E000000000
F800000000
FE00000000
FF00000000
FFC0000000
FFF0000000
FFF8000000
FFFE000000
FFFF000000
FFFFC00000
FFFFF00000
FFFFF80000
FFFFFE0000
FFFFFF8000
FFFFFFC000
FFFFFFF000
FFFFFFFC00
FFFFFFFE00
FFFFFFFF80
FFFFFFFFE0
FFFFFFFFF0
FFFFFFFFC0
FFFFFFFF80
FFFFFFFE00
FFFFFFF800
FFFFFFF000
FFFFFFC000
FFFFFF0000
FFFFFE0000
FFFFF80000
FFFFE00000
FFFFC00000
FFFF000000
FFFE000000
FFF8000000
FFE0000000
FFC0000000
FF00000000
FC00000000
F800000000
E000000000
8000000000
ENDCHAR
STARTCHAR 0045
ENCODING 69
SWIDTH 975 0
DWIDTH 42 0
BBX 42 41 0 -7
BITMAP
0001FFE00000
0007FFF80000
001FFFFE0000
007FFFFF8000
00FFFFFFC000
01FFFFFFE000
03FFFFFFF000
07FFFFFFF800
0FFFFFFFFC00
1FFFFFFFFE00
1FFFFFFFFE00
3FFFE1FFFF00
3FFF003FFF00
3FFE001FFF00
7FFC000FFF80
7FF80007FF80
7FF80007FF80
7FF00003FF80
FFF00003FFC0
FFF00003FFC0
FFF00003FFC0
FFF00003FFC0
FFF00003FF80
7FF00003FF80
7FF80007FF80
7FF80007FF80
7FFC000FFF80
3FFE001FFF00
3FFF807FFF00
1FFFFFFFFE00
1FFFFFFFFE00
0FFFFFFFFC00
0FFFFFFFFC00
07FFFFFFF800
03FFFFFFF000
01FFFFFFE000
00FFFFFFC000
003FFFFF0000
001FFFFE0000
0007FFF80000
00007F800000
ENDCHAR
STARTCHAR 0046
ENCODING 70
SWIDTH 975 0
DWIDTH 42 0
BBX 41 41 1 -7
BITMAP
FFFFFFFFFF80
FFFFFFFFFF80
FFFFFFFFFF80
FFFFFFFFFF80
FFFFFFFFFF80
FFFFFFFFFF80
FFFFFFFFFF80
FFFFFFFFFF80
FFFFFFFFFF80
FFFFFFFFFF80
FFFFFFFFFF80
FFFFFFFFFF80
FFFFFFFFFF80
FFFFFFFFFF80
FFFFFFFFFF80
FFFFFFFFFF80
FFFFFFFFFF80
FFFFFFFFFF80
FFFFFFFFFF80
FFFFFFFFFF80
FFFFFFFFFF80
FFFFFFFFFF80
FFFFFFFFFF80
FFFFFFFFFF80
FFFFFFFFFF80
FFFFFFFFFF80
FFFFFFFFFF80
FFFFFFFFFF80
FFFFFFFFFF80
FFFFFFFFFF80
FFFFFFFFFF80
FFFFFFFFFF80
FFFFFFFFFF80
FFFFFFFFFF80
FFFFFFFFFF80
FFFFFFFFFF80
FFFFFFFFFF80
FFFFFFFFFF80
FFFFFFFFFF80
FFFFFFFFFF80
FFFFFFFFFF80
ENDCHAR
STARTCHAR 0047
ENCODING 71
SWIDTH 975 0
DWIDTH 42 0
BBX 36 44 3 -8
BITMAP
FF80000010
FF80000030
FF800000F0
FF800001F0
FF800007F0
FF80000FF0
FF80003FF0
FF8000FFF0
FF8001FFF0
FF8007FFF0
FF801FFFF0
FF803FFFF0
FF80FFFFF0
FF83FFFFF0
FF87FFFFF0
FF9FFFFFF0
FFBFFFFFF0
FFFFFFFFF0
FFFFFFFFF0
FFFFFFFFF0
FFFFFFFFF0
FFFFFFFFF0
FFFFFFFFF0
FFFFFFFFF0
FFFFFFFFF0
FFFFFFFFF0
FFFFFFFFF0
FFFFFFFFF0
FFBFFFFFF0
FF8FFFFFF0
FF87FFFFF0
FF81FFFFF0
FF807FFFF0
FF803FFFF0
FF800FFFF0
FF8007FFF0
FF8001FFF0
FF80007FF0
FF80003FF0
FF80000FF0
FF800003F0
FF800001F0
FF80000070
FF80000010
ENDCHAR
STARTCHAR 0048
ENCODING 72
SWIDTH 975 0
DWIDTH 42 0
BBX 42 40 0 -6
BITMAP
000000200040
0000006000C0
000000E001C0
000001E007C0
000007E00FC0
00000FE01FC0
00001FE03FC0
00007FE0FFC0
0000FFE1FFC0
0001FFE3FFC0
0007FFCFFFC0
000FFF9FFFC0
001FFF3FFFC0
007FFCFFFFC0
00FFF9FFFFC0
01FFF3FFFFC0
07FFCFFFFFC0
0FFF9FFFFFC0
1FFF3FFFFFC0
7FFCFFFFFFC0
FFF9FFFFFFC0
3FFE7FFFFFC0
1FFF3FFFFFC0
07FF9FFFFFC0
03FFE7FFFFC0
01FFF3FFFFC0
007FF9FFFFC0
003FFE7FFFC0
001FFF3FFFC0
0007FF9FFFC0
0003FFE7FFC0
0001FFE3FFC0
00007FE1FFC0
00003FE07FC0
00001FE03FC0
000007E01FC0
000003E007C0
000001E003C0
0000006001C0
000000200040
ENDCHAR
STARTCHAR 0049
ENCODING 73
SWIDTH 975 0
DWIDTH 42 0
BBX 42 41 0 -7
BITMAP
F08000000000
F0E000000000
F0F000000000
F0F800000000
F0F800000000
F0F840000000
F0F860000000
F0F878000000
F0F87C000000
F0F87F000000
F0F87F800000
F0F87FE00000
F0F87FF80000
F0F87FFC0000
F0F87FFF0000
F0F87FFFC000
F0F87FFFE000
F0F87FFFF800
F0F87FFFFE00
F0F87FFFFF00
F0F87FFFFFC0
F0F87FFFFF00
F0F87FFFFC00
F0F87FFFF000
F0F87FFFE000
F0F87FFF8000
F0F87FFF0000
F0F87FFC0000
F0F87FF00000
F0F87FE00000
F0F87F800000
F0F87E000000
F0F87C000000
F0F870000000
F0F840000000
F0F800000000
F0F800000000
F0F800000000
F0F000000000
F0C000000000
F08000000000
ENDCHAR
STARTCHAR 004A
ENCODING 74
SWIDTH 975 0
DWIDTH 42 0
BBX 42 41 0 -7
BITMAP
000008000000
00000C000000
00001E000000
00003F000000
00003F000000
00007F800000
0000FFC00000
0001FFE00000
0001FFE00000
0003FFF00000
0007FFF80000
000FFFFC0000
000FFFFC0000
001FFFFE0000
003FFFFF0000
007FFFFF8000
007FFFFF8000
00FFFFFFC000
01FFFFFFE000
03FFFFFFF000
03FFFFFFF000
07FFFFFFF800
0FFFFFFFFC00
1FFFFFFFFE00
1FFFFFFFFE00
3FFFFFFFFF00
7FFFFFFFFF80
800000000040
000000000000
000000000000
FFFFFFFFFFC0
FFFFFFFFFFC0
FFFFFFFFFFC0
FFFFFFFFFFC0
FFFFFFFFFFC0
FFFFFFFFFFC0
FFFFFFFFFFC0
FFFFFFFFFFC0
FFFFFFFFFFC0
FFFFFFFFFFC0
FFFFFFFFFFC0
ENDCHAR
STARTCHAR 004B
ENCODING 75
SWIDTH 975 0
DWIDTH 42 0
BBX 42 42 0 -7
BITMAP
000000001000
000000007800
00000000F800
00000001F800
00000001F800
00000003F800
00000003F000
00000007E000
00000007E000
0000000FC000
0000001FC000
0000001F8000
0000003F8000
1FFFFFFF0000
1FFFFFFE0000
3FFFFFFE0000
3FFFFFFE0000
7FFFFFFF0000
FFFFFFFF0000
01FFFFFF8000
000FFFFFC000
00007FFFC000
00000FFFE000
00000FFFE000
00001FFFF000
00003FBFF000
00003F1FF800
00007E0FFC00
00007E07FC00
0000FC03FE00
0000F801FE00
0001F801FF00
003FF000FF00
007FE0007F80
00FFF0003FC0
007FF0001F80
0007F8000F00
0000F8000700
0000F8000600
000078000200
000030000000
000010000000
ENDCHAR
STARTCHAR 004C
ENCODING 76
SWIDTH 975 0
DWIDTH 42 0
BBX 36 44 3 -8
BITMAP
0000000800
0000000800
0000000800
0000001C00
0000001C00
001FFC3E00
007FFFFE00
01FFFFFE00
03FFFFFF00
07FFFFFF00
0FFFFFFF80
1F003FFF80
38000FFF80
600007FFC0
80000FFFC0
00000FFFE0
00001FFFE0
00001FFFF0
00003FFE00
00007E0000
0000000000
0000000000
0000000000
0000000000
0000100000
001FE00000
1FFFC00000
FFFF800000
7FFF800000
7FFF000000
3FFE000020
3FFE0000C0
1FFF0003C0
1FFFE01F80
1FFFFFFF00
0FFFFFFE00
0FFFFFFC00
07FFFFF800
07FFFFE000
07C0FF0000
0380000000
0380000000
0100000000
0100000000
ENDCHAR
STARTCHAR 004D
ENCODING 77
SWIDTH 975 0
DWIDTH 42 0
BBX 42 35 0 -4
BITMAP
0007FE000000
003FFFC00000
00FFFFE00000
01FFFFF80000
03FFFFFC0000
07FC03FE0000
0FF000FF0000
1FC0007F8000
1F80001F8000
3F00001FC000
3F00000FC000
7E000007E000
7E000007E000
7C000003E040
7C0000FFFF80
FC00007FFF00
FC00003FFE00
FC00001FFE00
FC00001FFC00
FC00000FF800
7C000007F000
7C000003E000
7E000001C000
7E0000008000
3F0000008000
3F8000000000
1FC000000000
0FE000400000
0FF801C00000
07FF9FE00000
03FFFFE00000
00FFFFF00000
007FFFE00000
001FFF800000
0003FC000000
ENDCHAR
STARTCHAR 004E
ENCODING 78
SWIDTH 975 0
DWIDTH 42 0
BBX 42 30 0 -1
BITMAP
000000000C00
000000003E00
000000007F00
00000000FF80
00000001FF80
00000003FFC0
00000007FF80
0000000FFF00
0000001FFE00
0E00003FFC00
1F00007FF800
3F8000FFF000
7FC001FFE000
FFE003FFC000
FFF007FF8000
7FF80FFF0000
3FFC1FFE0000
1FFE3FFC0000
0FFF7FF80000
07FFFFF00000
03FFFFE00000
01FFFFC00000
00FFFF800000
007FFF000000
003FFE000000
001FFC000000
000FF8000000
0007F0000000
0003E0000000
0001C0000000
ENDCHAR
STARTCHAR 004F
ENCODING 79
SWIDTH 975 0
DWIDTH 42 0
BBX 42 41 0 -7
BITMAP
3FE000000000
7FFE00000000
7FFFC0000000
FFFFF8000000
FFFFFC000000
7FFFFF000000
3FFFFFC00000
07FFFFE00000
000FFFF00000
0001FFF80000
00007FFC0000
00001FFE0000
3FC007FF0000
7FF803FF8000
7FFE01FFC000
FFFF807FE000
FFFFE03FE000
7FFFF03FF000
3FFFF81FF800
0FFFFC0FF800
003FFE07FC00
000FFF07FC00
0003FF83FE00
0001FFC1FE00
0000FFC1FE00
00007FE1FF00
00003FE0FF00
07C01FF0FF00
1FF00FF07F80
3FF80FF07F80
7FF807F87F80
7FFC07F87F80
7FFC07F87F80
FFFC07F83F80
FFFC03F83F80
7FFC03F83FC0
7FFC03F83FC0
7FF803FC3FC0
3FF803F83F80
1FF001F81F80
07C000E00E00
ENDCHAR
STARTCHAR 0050
ENCODING 80
SWIDTH 975 0
DWIDTH 42 0
BBX 39 44 1 -8
BITMAP
0000180000
0003FFC000
000FFFF000
001FFFF800
007FFFFE00
00FFFFFF00
01FFFFFF00
01FF81FF80
03FE007FC0
03F8003FC0
07F8001FE0
07F0000FE0
07E00007E0
0FE00007F0
0FE00007F0
0FE00007F0
0FC00007F0
0FC00007F0
0FC00007F0
0FC00007F0
FFFFFFFFFE
FFFFFFFFFE
FFFFFFFFFE
FFFFFFFFFE
FFFFFFFFFE
FFFFFFFFFE
FFFFC3FFFE
FFFF81FFFE
FFFF81FFFE
FFFF81FFFE
FFFFC3FFFE
FFFFC3FFFE
FFFFC3FFFE
FFFFC3FFFE
FFFFC3FFFE
FFFFC3FFFE
FFFFC3FFFE
FFFFC3FFFE
FFFFC3FFFE
FFFFFFFFFE
FFFFFFFFFE
FFFFFFFFFE
FFFFFFFFFE
FFFFFFFFFE
ENDCHAR
STARTCHAR 0051
ENCODING 81
SWIDTH 975 0
DWIDTH 42 0
BBX 42 41 0 -7
BITMAP
00FFFFFF8000
00FFFFFF8000
00FFFFFF8000
00FFFFFF8000
00FFFFFF8000
00FFFFFF8000
00FFFFFF8000
00FFFFFF8000
00FFFFFF8000
00FFFFFF8000
00FFFFFF8000
00FFFFFF8000
00FFFFFF8000
00FFFFFF8000
00FFFFFF8000
00000C000000
00000C000000
00000C000000
00000C000000
00000C000000
00000C000000
007FFFFFC000
007FFFFFC000
004000004000
004000004000
004000004000
004000004000
FFFFC0FFFFC0
FFFFC0FFFFC0
FFFFC0FFFFC0
FFFFC0FFFFC0
FFFFC0FFFFC0
FFFFC0FFFFC0
FFFFC0FFFFC0
FFFFC0FFFFC0
FFFFC0FFFFC0
FFFFC0FFFFC0
FFFFC0FFFFC0
FFFFC0FFFFC0
FFFFC0FFFFC0
FFFFC0FFFFC0
ENDCHAR
STARTCHAR 0052
ENCODING 82
SWIDTH 975 0
DWIDTH 42 0
BBX 42 25 0 1
BITMAP
0000C0000000
0000E0000000
0000F8000000
00007C000000
007FFE1F8000
03FFFF9FF000
0FFFFFDFFC00
1FFFFFDFFE00
3FFFFF9FFF00
3FFFFE1FFF00
7F007C003F80
7E00F8001F80
7C00E0000F80
FC00C0000FC0
FC0000000FC0
FC0000000FC0
7C0000000F80
7E0000001F80
7F0000003F80
3FFFFFFFFF00
3FFFFFFFFF00
1FFFFFFFFE00
0FFFFFFFFC00
03FFFFFFF000
007FFFFF8000
ENDCHAR
STARTCHAR 0053
ENCODING 83
SWIDTH 975 0
DWIDTH 42 0
BBX 42 35 0 -4
BITMAP
0000001C0000
0000003E0000
0000007F0000
000000FF8000
000001FFC000
000003FFE000
7FFF87FFF000
FFFFCFFFF800
FFFFDFFFFC00
FFFFBFFFFE00
FFFF7FFFFF00
FFFEFFFFFF80
FFFEFF7F7F80
FF00FC7F1F80
FE00F07F0780
FCFE0F7F7840
FCFFFF7F7FC0
FDFFFF7F7F80
F9FFFF7F7F80
F9FFFF7F7F80
FBFFFF7F7F80
F3FFFF7F7F00
F3FFFF7F7F00
F3FFFF7F7F00
F7FFFF7F7E00
E7FFFF7F7E00
E7FFFF3F7E00
EFFFFFBEFE00
CFFFFFC1FC00
CFFFFFFFFC00
DFFFFFFFFC00
5FFFFFFFF800
1FFFFFFFF800
1FFFFFFFF800
0FFFFFFFE000
ENDCHAR
STARTCHAR 0054
ENCODING 84
SWIDTH 975 0
DWIDTH 42 0
BBX 42 41 0 -7
BITMAP
0001FFE00000
000FFFF80000
003FFFFE0000
007FFFFF8000
00FFFFFFC000
01FFFFFFE000
03FF807FF000
07FC000FF800
0FF80007FC00
1FF80001FC00
1FFC0000FE00
3FFE0000FF00
3FBF00007F00
7F1F80003F00
7F0FC0003F80
7E07E0001F80
7E03F0001F80
FE01F8001F80
FE00FC001F80
FC007E001FC0
FC003F001FC0
FC001F801F80
FE000FC01F80
7E0007E01F80
7E0003F01F80
7E0001F83F80
7F0000FC3F80
3F00007E7F00
3F80003F7F00
3FC0001FFE00
1FE0000FFE00
0FF00007FC00
0FF80007FC00
07FE001FF800
03FFC0FFF000
01FFFFFFE000
00FFFFFFC000
007FFFFF0000
001FFFFE0000
0007FFF80000
00007F800000
ENDCHAR
STARTCHAR 0055
ENCODING 85
SWIDTH 975 0
DWIDTH 42 0
BBX 42 37 0 -5
BITMAP
000004000000
00000E000000
00001E000000
00003E000000
00007E000000
0000FE000000
0001FE000000
0003FE000000
0007FE000000
000FFE000000
001FFE000000
FFFFFE000000
FFFFFE000000
FFFFFE000000
FFFFFE000000
FFFFFE000000
FFFFFE1FFFC0
FFFFFE1FFFC0
FFFFFE1FFFC0
FFFFFE1FFFC0
FFFFFE1FFF80
FFFFFE000000
FFFFFE000000
FFFFFE000000
FFFFFE000000
7FFFFE000000
000FFE000000
0007FE000000
0003FE000000
0001FE000000
0001FE000000
0000FE000000
00007E000000
00003E000000
00001E000000
00000E000000
000004000000
ENDCHAR
STARTCHAR 0056
ENCODING 86
SWIDTH 975 0
DWIDTH 42 0
BBX 42 38 0 -5
BITMAP
000002000000
000007000000
00000F000000
00001F000000
00003F000000
00007F000000
0000FF000000
0001FF000000
0003FF000000
0007FF000000
0007FF000000
000FFF000000
FFFFFF00F000
FFFFFF00F000
FFFFFF00F000
FFFFFF00F000
FFFFFF00F000
FFFFFF3FFFC0
FFFFFF3FFFC0
FFFFFF3FFFC0
FFFFFF3FFFC0
FFFFFF3FFFC0
FFFFFF00F000
FFFFFF00F000
FFFFFF00F000
FFFFFF00F000
7FFFFF00F000
000FFF000000
0007FF000000
0003FF000000
0001FF000000
0000FF000000
00007F000000
00007F000000
00003F000000
00001F000000
00000F000000
000006000000
ENDCHAR
STARTCHAR 0057
ENCODING 87
SWIDTH 975 0
DWIDTH 42 0
BBX 42 41 0 -7
BITMAP
00200003E000
03FE001FF800
0FFF003FFC00
1FFFC0FFFE00
3FFFC1FFFF00
7FFFE1FFFF80
7FFFF3FFFF80
7FFFF7FFFF80
FFFFFFFFFF80
FFFFFFFFFFC0
FFFFFFFFFFC0
7FFFFFFFFFC0
7FFFFFFFFF80
7FFFFFFFFF80
3FFFFFFFFF80
3FFFFFFFFF00
1FFFFFFFFF00
0FFFFFFFFE00
07FFFFFFFC00
07FFFFFFF800
03FFFFFFF000
01FFFFFFE000
00FFFFFFC000
007FFFFF8000
003FFFFF0000
001FFFFE0000
000FFFFE0000
0007FFFC0000
0003FFF80000
0001FFF00000
0000FFE00000
00007FC00000
00003F800000
00001F000000
00001E000000
00000E000000
00000C000000
00000C000000
000004000000
000004000000
000004000000
ENDCHAR
STARTCHAR 0058
ENCODING 88
SWIDTH 975 0
DWIDTH 42 0
BBX 34 44 4 -8
BITMAP
0060000000
01F0000000
01F0000000
01F0000000
01F0000000
01F0000000
01F0000000
01F0000000
01F0000000
01F0000000
01F0000000
01F0000000
01F0000000
01F1E00000
01F1E00000
01F1E1C000
01F1E3E180
01F1E3E3C0
01F1E3E3C0
F1F1E3E3C0
F9FFFFFFC0
F9FFFFFFC0
F9FFFFFFC0
F9FFFFFFC0
F9FFFFFFC0
F9FFFFFFC0
F9FFFFFFC0
F9FFFFFFC0
FBFFFFFFC0
FFFFFFFFC0
FFFFFFFFC0
FFFFFFFFC0
FFFFFFFFC0
7FFFFFFFC0
3FFFFFFFC0
3FFFFFFFC0
1FFFFFFFC0
0FFFFFFFC0
0FFFFFFFC0
07FFFFFFC0
03FFFFFFC0
03FFFFFFC0
01FFFFFFC0
00FFFFFF80
ENDCHAR
STARTCHAR 0059
ENCODING 89
SWIDTH 975 0
DWIDTH 42 0
BBX 31 44 5 -8
BITMAP
00018000
0003C000
0003C000
0003C000
00C3C300
01E3C780
01E3C780
01E3C780
01E3C780
01E3C784
01E3C79E
01E3C79E
01E3C79E
01E3C79E
01E3C79E
01E3C79E
01E3C79E
01E3C79E
01E3C79E
01E3C79E
01E3C79E
71E3C79E
F9F7EF9E
F9FFFFFE
F9FFFFFE
F9FFFFFE
F9FFFFFE
F9FFFFFE
F9FFFFFE
F9FFFFFE
FFFFFFFE
FFFFFFFE
FFFFFFFE
7FFFFFFE
3FFFFFFE
3FFFFFFE
1FFFFFFE
0FFFFFFE
0FFFFFFE
07FFFFFE
07FFFFFE
03FFFFFE
01FFFFFE
00FFFFFC
ENDCHAR
STARTCHAR 005A
ENCODING 90
SWIDTH 975 0
DWIDTH 42 0
BBX 42 42 0 -7
BITMAP
000000003000
000000003800
000001803800
000003803C00
000007801C00
00000F801E00
00001F801E00
00003F860E00
00007F870F00
0000FF870F00
0001FF878F00
0003FF878780
0007FF838780
000FFF83C780
FFFFFF83C780
FFFFFF83C780
FFFFFF83C780
FFFFFF83C7C0
FFFFFF83C7C0
FFFFFF83C7C0
FFFFFF83C7C0
FFFFFF83C7C0
FFFFFF83C7C0
FFFFFF83C7C0
FFFFFF83C7C0
FFFFFF83C780
FFFFFF83C780
FFFFFF83C780
FFFFFF83C780
FFFFFF838780
000FFF878780
0007FF878F00
0003FF870F00
0001FF870F00
0000FF8F0E00
00007F861E00
00003F801E00
00001F801C00
00000F803C00
000007803800
000007803800
000003803000
ENDCHAR
STARTCHAR 005B
ENCODING 91
SWIDTH 975 0
DWIDTH 42 0
BBX 40 41 1 -7
BITMAP
8000000000
E000000000
F800000000
FE00000000
FF80000000
FFE0000000
FFF8000000
FFFE000000
FFFF800000
FFFFE00000
FFFFF80000
FFFFFE0000
FFFFFF8000
FFFFFFE000
FFFFFFF800
FFFFFFFE00
FFFFFFFF80
FFFFFFFFE0
FFFFFFFFF8
FFFFFFFFFE
FFFFFFFFFF
FFFFFFFFFC
FFFFFFFFF0
FFFFFFFFC0
FFFFFFFF00
FFFFFFFC00
FFFFFFF000
FFFFFFC000
FFFFFF0000
FFFFFC0000
FFFFF00000
FFFFC00000
FFFF000000
FFFC000000
FFF0000000
FFC0000000
FF00000000
FC00000000
F000000000
C000000000
8000000000
ENDCHAR
STARTCHAR 005C
ENCODING 92
SWIDTH 975 0
DWIDTH 42 0
BBX 42 41 0 -7
BITMAP
FFFFFFFFFFC0
7FFFFFFFFF80
3FFFFFFFFF00
3FFFFFFFFF00
1FFFFFFFFE00
1FFFFFFFFE00
0FFFFFFFFC00
0FFFFFFFFC00
07FFFFFFF800
07FFFFFFF800
03FFFFFFF000
03FFFFFFF000
01FFFFFFE000
01FFFFFFE000
00FFFFFFC000
00FFFFFFC000
007FFFFF8000
007FFFFF8000
003FFFFF0000
003FFFFF0000
001FFFFE0000
001FFFFE0000
000FFFFC0000
000FFFFC0000
0007FFF80000
0007FFF80000
0003FFF00000
0003FFF00000
0001FFE00000
0001FFE00000
0000FFC00000
0000FFC00000
00007F800000
00007F800000
00003F000000
00003F000000
00001E000000
00001E000000
00000C000000
00000C000000
000008000000
ENDCHAR
STARTCHAR 005D
ENCODING 93
SWIDTH 975 0
DWIDTH 42 0
BBX 42 41 0 -7
BITMAP
0000000000C0
0000000003C0
000000000FC0
000000003FC0
00000000FFC0
00000003FFC0
0000000FFFC0
0000003FFFC0
000000FFFFC0
000003FFFFC0
00000FFFFFC0
00003FFFFFC0
0000FFFFFFC0
0003FFFFFFC0
000FFFFFFFC0
003FFFFFFFC0
00FFFFFFFFC0
03FFFFFFFFC0
0FFFFFFFFFC0
3FFFFFFFFFC0
FFFFFFFFFFC0
1FFFFFFFFFC0
07FFFFFFFFC0
01FFFFFFFFC0
007FFFFFFFC0
001FFFFFFFC0
0007FFFFFFC0
0001FFFFFFC0
00007FFFFFC0
00001FFFFFC0
000007FFFFC0
000001FFFFC0
0000007FFFC0
0000001FFFC0
00000007FFC0
00000001FFC0
000000007FC0
000000001FC0
0000000007C0
0000000001C0
000000000040
ENDCHAR
STARTCHAR 005E
ENCODING 94
SWIDTH 975 0
DWIDTH 42 0
BBX 42 15 0 6
BITMAP
010000002000
020000001000
060000001800
0E0000001C00
1C0000000E00
3C0000000F00
7FFFFFFFFF80
FFFFFFFFFFC0
3FFFFFFFFF80
1C0000000F00
0C0000000E00
060000001C00
020000001800
020000001000
010000002000
ENDCHAR
STARTCHAR 005F
ENCODING 95
SWIDTH 975 0
DWIDTH 42 0
BBX 16 44 13 -8
BITMAP
0100
0180
03C0
07E0
0FF0
1FF8
3BDC
C3C2
03C1
03C0
03C0
03C0
03C0
03C0
03C0
03C0
03C0
03C0
03C0
03C0
03C0
03C0
03C0
03C0
03C0
03C0
03C0
03C0
03C0
03C0
03C0
03C0
03C0
03C0
03C0
03C0
83C1
63C6
3FFC
1FF8
0FF0
07E0
03C0
0180
ENDCHAR
STARTCHAR 0060
ENCODING 96
SWIDTH 975 0
DWIDTH 42 0
BBX 16 44 13 -8
BITMAP
03C0
03C0
03C0
03C0
03C0
03C0
03C0
03C0
03C0
03C0
03C0
03C0
03C0
03C0
03C0
03C0
03C0
03C0
03C0
03C0
03C0
03C0
03C0
03C0
03C0
03C0
03C0
03C0
03C0
03C0
03C0
03C0
03C0
03C0
03C0
03C0
83C1
63C6
3FFC
1FF8
0FF0
07E0
03C0
0180
ENDCHAR
STARTCHAR 0061
ENCODING 97
SWIDTH 975 0
DWIDTH 42 0
BBX 42 24 0 2
BITMAP
000000001000
000000001000
000000003000
0007FE003000
001FFF807000
003FFFF0F800
00FFFFFCF800
01FFFFFFF800
03FFFFFFFC00
03FFFFFFFC00
07FFFFFFFC00
0FFFFFFFFC00
0FE01FFFFE00
1F0007FFFE00
3C0001FFFE00
300000FFFE00
600000FFFF00
400001FFFF00
800003FFFF00
000007FFFF80
00000FFFFF80
00001FFFFF80
00001FFFFF80
00007FFFFFC0
ENDCHAR
STARTCHAR 0062
ENCODING 98
SWIDTH 975 0
DWIDTH 42 0
BBX 41 23 1 2
BITMAP
040000000000
060000000000
06000FC00000
0700FFF80000
0783FFFE0000
0F8FFFFF0000
0FFFFFFF8000
0FFFFFFFC000
1FFFFFFFE000
1FFFFFFFF000
1FFFFFFFF000
1FFFFE03F800
3FFFF0007C00
3FFFC0003C00
3FFF80000E00
3FFF80000600
7FFFC0000100
7FFFE0000080
7FFFF0000000
7FFFF8000000
FFFFFC000000
FFFFFC000000
FFFFFF000000
ENDCHAR
STARTCHAR 0063
ENCODING 99
SWIDTH 975 0
DWIDTH 42 0
BBX 41 44 0 -8
BITMAP
00003F800000
00007FC00000
0000FFC00000
0000FFC00000
0000FFC00000
0000FFC00000
0000FFC00000
0000FFC00000
0000FFC00000
0000FFC00000
0000FFC00000
0000FFC00000
0000FFC00000
0000FFC00000
0000FFC00000
0000FFC00000
0000FFC00000
0000FFC00000
0000FFC00000
0000FFC00000
3C00FFC00F00
7F00FFC07F80
7FC0FFC1FF80
FFF0FFC7FF80
7FFCFFDFFF80
7FFFFFFFFF80
3FFFFFFFFF00
1FFFFFFFFE00
0FFFFFFFFC00
07FFFFFFF800
03FFFFFFF000
01FFFFFFE000
00FFFFFFC000
007FFFFF8000
003FFFFF0000
001FFFFE0000
000FFFFC0000
0007FFF80000
0003FFF00000
0001FFE00000
0000FFC00000
00007F800000
00003F000000
00001E000000
ENDCHAR
STARTCHAR 0064
ENCODING 100
SWIDTH 975 0
DWIDTH 42 0
BBX 40 41 1 -7
BITMAP
00000000E0
00000001F0
00000003F8
00000007FC
3C00000FFE
7E00001FFF
FF00003FFF
FF00007FFF
FF8000FFFF
FF8001FFFE
FF8003FFFC
FFC007FFF8
FFC00FFFF0
FFC01FFFE0
FFE03FFFC0
FFE07FFF80
FFE0FFFF00
FFF1FFFE00
FFF3FFFC00
FFF7FFF800
FFFFFFF000
FFFFFFE000
FFFFFFC000
FFFFFF8000
FFFFFF0000
FFFFFE0000
FFFFFC0000
FFFFF80000
FFFFFC0000
FFFFFF0000
FFFFFFE000
FFFFFFFC00
FFFFFFFF80
FFFFFFFFE0
FFFFFFFFF0
FFFFFFFFF8
FFFFFFFFF8
FFFFFFFFF0
FFFFFFFFF0
7FFFFFFFE0
3FFFFFFFC0
ENDCHAR
STARTCHAR 0065
ENCODING 101
SWIDTH 975 0
DWIDTH 42 0
BBX 40 41 1 -7
BITMAP
0700000000
0F80000000
1FC0000000
3FE0000000
7FF0000038
FFF800007E
FFFC0000FF
FFFE0000FF
FFFF0001FF
7FFF8001FF
3FFFC001FF
1FFFE003FF
0FFFF003FF
07FFF803FF
03FFFC07FF
01FFFE07FF
00FFFF07FF
007FFF8FFF
003FFFCFFF
001FFFEFFF
000FFFFFFF
0007FFFFFF
0003FFFFFF
0001FFFFFF
0000FFFFFF
00007FFFFF
00003FFFFF
00001FFFFF
00003FFFFF
0000FFFFFF
0007FFFFFF
003FFFFFFF
01FFFFFFFF
07FFFFFFFF
0FFFFFFFFF
1FFFFFFFFF
1FFFFFFFFF
1FFFFFFFFF
0FFFFFFFFF
07FFFFFFFE
03FFFFFFFC
ENDCHAR
STARTCHAR 0066
ENCODING 102
SWIDTH 975 0
DWIDTH 42 0
BBX 42 38 0 -5
BITMAP
000038000000
0000FC000000
0001FE000000
0003FE000000
0007FE000000
000FFC000000
001FFC000000
003FF8000000
007FF8000000
00FFF0000000
01FFF0000000
03FFE0000000
07FFE0000000
0FFFC0000000
1FFFC0000000
3FFFFFFFFF80
7FFFFFFFFF80
7FFFFFFFFFC0
FFFFFFFFFFC0
FFFFFFFFFFC0
7FFFFFFFFFC0
7FFFFFFFFFC0
3FFFFFFFFF80
1FFFFFFFFF00
0FFFC0000000
07FFE0000000
03FFE0000000
01FFF0000000
00FFF0000000
007FF8000000
003FF8000000
001FFC000000
000FFC000000
0007FE000000
0003FE000000
0001FE000000
0000FE000000
00007C000000
ENDCHAR
STARTCHAR 0067
ENCODING 103
SWIDTH 975 0
DWIDTH 42 0
BBX 42 39 0 -6
BITMAP
000007000000
00001FC00000
00001FE00000
00001FF00000
00001FF80000
00000FFC0000
00000FFE0000
000007FF0000
000007FF8000
000003FFC000
000003FFE000
000001FFF000
000001FFF800
000000FFFC00
000000FFFE00
7FFFFFFFFF00
7FFFFFFFFF80
FFFFFFFFFF80
FFFFFFFFFFC0
FFFFFFFFFFC0
FFFFFFFFFFC0
FFFFFFFFFF80
FFFFFFFFFF00
7FFFFFFFFE00
000000FFFC00
000001FFF800
000001FFF000
000003FFE000
000003FFC000
000007FF8000
000007FF0000
00000FFE0000
00000FFC0000
00000FF80000
00001FF00000
00001FE00000
00001FC00000
00000F800000
000006000000
ENDCHAR
STARTCHAR 0068
ENCODING 104
SWIDTH 975 0
DWIDTH 42 0
BBX 41 44 1 -8
BITMAP
000018000000
00007E000000
0000FF000000
0001FF800000
0003FFC00000
0007FFE00000
000FFFF00000
001FFFF80000
003FFFFC0000
007FFFFE0000
00FFFFFF0000
01FFFFFF8000
03FFFFFFC000
07FFFFFFE000
0FFFFFFFF000
1FFFFFFFF800
3FFFFFFFFC00
7FFFFFFFFE00
FFFFFFFFFF00
FFFDFFBFFF00
FFF1FF8FFF80
FFC1FF83FF00
FF01FF80FF00
FC01FF803F00
0001FF800000
0001FF800000
0001FF800000
0001FF800000
0001FF800000
0001FF800000
0001FF800000
0001FF800000
0001FF800000
0001FF800000
0001FF800000
0001FF800000
0001FF800000
0001FF800000
0001FF800000
0001FF800000
0001FF800000
0001FF800000
0001FF800000
0000FF800000
ENDCHAR
STARTCHAR 0069
ENCODING 105
SWIDTH 975 0
DWIDTH 42 0
BBX 42 42 0 -7
BITMAP
0FFFFFFFC000
3FFFFFFFF000
7FFFFFFFF800
7FFFFFFFFC00
FFFFFFFFFC00
FFFFFFFFFC00
FFFFFFFFFC00
FFFFFFFFF800
FFFFFFFFF000
FFFFFFFF8000
FFFFFFFE0000
FFFFFFF00000
FFFFFF800000
FFFFFC000000
FFFFFC000000
FFFFFE000000
FFFFFF000000
FFFFFF800000
FFFFFFC00000
FFFFFFE00000
FFFFFFF00000
FFFFFFF80000
FFFFFFFC0000
FFFBFFFE0000
FFF9FFFF0000
FFF0FFFF8000
FFF07FFFC000
FFF03FFFE000
FFE01FFFF000
FFE00FFFF800
FFE007FFFC00
FFC003FFFE00
FFC001FFFF00
FF8000FFFF80
7F80007FFFC0
7F00003FFFC0
3F00001FFF80
1E00000FFF80
00000007FF00
00000003FE00
00000001FC00
00000000F800
ENDCHAR
STARTCHAR 006A
ENCODING 106
SWIDTH 975 0
DWIDTH 42 0
BBX 42 42 0 -7
BITMAP
00FFFFFFFC00
03FFFFFFFF00
07FFFFFFFF80
0FFFFFFFFF80
0FFFFFFFFFC0
0FFFFFFFFFC0
0FFFFFFFFFC0
07FFFFFFFFC0
01FFFFFFFFC0
007FFFFFFFC0
001FFFFFFFC0
0003FFFFFFC0
00007FFFFFC0
00000FFFFFC0
00000FFFFFC0
00001FFFFFC0
00003FFFFFC0
00007FFFFFC0
0000FFFFFFC0
0001FFFFFFC0
0003FFFFFFC0
0007FFFFFFC0
000FFFFFFFC0
001FFFF7FFC0
003FFFE7FFC0
007FFFC3FFC0
00FFFF83FFC0
01FFFF03FFC0
03FFFE01FFC0
07FFFC01FFC0
0FFFF801FFC0
1FFFF000FFC0
3FFFE000FFC0
7FFFC0007FC0
FFFF80007F80
FFFF00003F80
7FFE00003F00
7FFC00001E00
3FF800000000
1FF000000000
0FE000000000
07C000000000
ENDCHAR
STARTCHAR 006B
ENCODING 107
SWIDTH 975 0
DWIDTH 42 0
BBX 42 36 0 -4
BITMAP
000001000000
000001000000
000001800000
000001C00000
000001E00000
000001F00000
000001F80000
000001FC0000
000001FE0000
0000FFFF0000
000FFFFF8000
007FFFFFC000
01FFFFFFE000
03FFFFFFF000
07FFFFFFF800
0FFFFFFFFC00
1FFFFFFFFE00
1FFFFFFFFF00
3FFFFFFFFFC0
3FFFFFFFFF00
3FFC07FFFE00
7FE007FFF800
7FC007FFE000
7F0007FFC000
7E000FFF0000
7C000FFC0000
F8000FF00000
F8000FE00000
F0000F800000
E0000E000000
E00018000000
C00010000000
C00000000000
C00000000000
800000000000
800000000000
ENDCHAR
STARTCHAR 006C
ENCODING 108
SWIDTH 1068 0
DWIDTH 46 0
BBX 46 39 0 -6
BITMAP
000008000000
000018000000
000038000000
000078000000
0000F8000000
0001F8000000
0003F8000000
0007F8000000
000FF8000000
001FFFF00000
003FFFFF8000
007FFFFFE000
00FFFFFFF800
01FFFFFFFE00
03FFFFFFFF00
07FFFFFFFF80
0FFFFFFFFFC0
1FFFFFFFFFE0
3FFFFFFFFFE0
FFFFFFFFFFF0
7FFFFFFFFFF0
1FFFFE07FFF0
07FFFE007FF8
01FFFE001FF8
00FFFE0007F8
003FFF0003F8
000FFF0001FC
0007FF0000FC
0001FF0000FC
00007F00007C
00001F00003C
00000F80003C
00000380001C
00000080001C
00000000000C
00000000000C
000000000004
000000000004
000000000004
ENDCHAR
STARTCHAR 006D
ENCODING 109
SWIDTH 975 0
DWIDTH 42 0
BBX 36 44 3 -8
BITMAP
003FFF8000
003FFF8000
003FFF8000
003FFF8000
003FFF8000
003FFF8000
003FFF8000
003FFF8000
003FFF8000
003FFF8000
003FFF8000
003FFF8000
003FFF8000
003FFF8000
003FFF8000
003FFF8000
003FFF8000
003FFF8000
003FFF8000
003FFF8000
003FFF8000
003FFF8000
003FFF8000
003FFF8000
003FFF8000
FFFFFFFFF0
7FFFFFFFE0
3FFFFFFFC0
1FFFFFFF80
0FFFFFFF00
07FFFFFE00
03FFFFFC00
01FFFFF800
00FFFFF000
007FFFE000
003FFFC000
001FFF8000
000FFF0000
000FFF0000
0007FE0000
0003FC0000
0001F80000
0000F00000
0000600000
ENDCHAR
STARTCHAR 006E
ENCODING 110
SWIDTH 975 0
DWIDTH 42 0
BBX 42 34 0 -3
BITMAP
000020000000
000060000000
0000E0000000
0001E0000000
0003E0000000
0007E0000000
000FE0000000
001FE0000000
003FE0000000
007FE0000000
00FFFFFFFFC0
01FFFFFFFFC0
07FFFFFFFFC0
0FFFFFFFFFC0
1FFFFFFFFFC0
3FFFFFFFFFC0
7FFFFFFFFFC0
FFFFFFFFFFC0
3FFFFFFFFFC0
1FFFFFFFFFC0
0FFFFFFFFFC0
07FFFFFFFFC0
03FFFFFFFFC0
01FFFFFFFFC0
00FFE0000000
007FE0000000
003FE0000000
001FE0000000
000FE0000000
0007E0000000
0001E0000000
0000E0000000
000060000000
000020000000
ENDCHAR
STARTCHAR 006F
ENCODING 111
SWIDTH 975 0
DWIDTH 42 0
BBX 42 34 0 -3
BITMAP
000001000000
000001800000
000001C00000
000001E00000
000001F00000
000001F80000
000001FC0000
000001FE0000
000001FF0000
000001FF8000
FFFFFFFFC000
FFFFFFFFE000
FFFFFFFFF000
FFFFFFFFF800
FFFFFFFFFE00
FFFFFFFFFF00
FFFFFFFFFF80
FFFFFFFFFFC0
FFFFFFFFFF00
FFFFFFFFFE00
FFFFFFFFFC00
FFFFFFFFF800
FFFFFFFFF000
FFFFFFFFE000
000001FFC000
000001FF8000
000001FF0000
000001FE0000
000001F80000
000001F00000
000001E00000
000001C00000
000001800000
000001000000
ENDCHAR
STARTCHAR 0070
ENCODING 112
SWIDTH 975 0
DWIDTH 42 0
BBX 36 44 3 -8
BITMAP
0000200000
0000600000
0000F00000
0001F80000
0003FC0000
0007FE0000
000FFF0000
001FFF8000
001FFFC000
003FFFC000
007FFFE000
00FFFFF000
01FFFFF800
03FFFFFC00
07FFFFFE00
0FFFFFFF00
1FFFFFFF80
3FFFFFFFC0
7FFFFFFFE0
FFFFFFFFF0
003FFF8000
003FFF8000
003FFF8000
003FFF8000
003FFF8000
003FFF8000
003FFF8000
003FFF8000
003FFF8000
003FFF8000
003FFF8000
003FFF8000
003FFF8000
003FFF8000
003FFF8000
003FFF8000
003FFF8000
003FFF8000
003FFF8000
003FFF8000
003FFF8000
003FFF8000
003FFF8000
003FFF8000
ENDCHAR
STARTCHAR 0071
ENCODING 113
SWIDTH 975 0
DWIDTH 42 0
BBX 38 44 2 -8
BITMAP
0000002000
0000006000
0000006000
000000F000
000000F000
000001F800
000003FC00
000003FC00
000007FE00
000007FE00
00000FFF00
00000FFF00
FE001FFF80
FE003FFFC0
FE003FFFC0
FE007FFFE0
FE007FFFE0
FE00FFFFF0
FE00FFFFF0
FE01FFFFF8
FE03FFFFFC
FE0003F800
FE0003F800
FE0003F800
FE0003F800
FE0003F800
FE0003F800
FE0003F800
FE0003F800
FE0003F800
FE0003F800
FE0003F800
FF0003F800
7F0007F800
7F8007F800
7FC00FF000
3FE03FF000
3FFFFFE000
1FFFFFC000
0FFFFFC000
07FFFF8000
03FFFF0000
00FFFC0000
003FF00000
ENDCHAR
STARTCHAR 0072
ENCODING 114
SWIDTH 975 0
DWIDTH 42 0
BBX 42 35 0 -4
BITMAP
000030000000
0000F0000000
0001F0000000
0007F0000000
001FF0000000
003FF0000000
00FFF0000000
03FFF0000000
0FFFFFFF8000
1FFFFFFFE000
FFFFFFFFF000
7FFFFFFFF800
1FFFFFFFFC00
07FFFFFFFE00
01FFF003FF00
00FFF000FF00
003FF0007F80
000FF0003F80
0003F0003F80
0001F0001FC0
000070001FC0
000010001FC0
000000001FC0
000000001F80
000000003F80
000000003F80
000000007F80
00000001FF00
001FFFFFFF00
001FFFFFFE00
001FFFFFFC00
001FFFFFF800
001FFFFFF000
001FFFFFC000
001FFFFF0000
ENDCHAR
STARTCHAR 0073
ENCODING 115
SWIDTH 975 0
DWIDTH 42 0
BBX 42 33 0 -3
BITMAP
00003E000000
0007FFF80000
003FFFFF0000
00FFFFFFC000
03FFFFFFF000
07FFFFFFF800
0FFFFFFFFC00
1FFFFFFFFE00
3FFFFFFFFF00
7FFFFFFFFF00
7FFFFFFFFF80
7FFFFFFFFF80
FFFFFFFFFF80
FFFFFFFFFFC0
FFFFFFFFFFC0
FFFFFFFFFFC0
7FFFFFFFFF80
7FFFFFFFFF80
7FFFFFFFFF80
3FFFFFFFFF00
3FFFFFFFFE00
1FFFFFFFFC00
0FFFFFFFF800
07FFFFFFF000
01FFFFFFC000
007FFFFF0000
001FFFFC0000
0001FFC00000
0001F0000000
0001E0000000
0003C0000000
000780000000
001800000000
ENDCHAR
STARTCHAR 0074
ENCODING 116
SWIDTH 975 0
DWIDTH 42 0
BBX 42 35 0 -4
BITMAP
7FFFFFFFFF80
7FFFFFFFFF80
FFFFFFFFFFC0
FFFFFFFFFFC0
FFFFFFFFFFC0
FFFFFFFFFFC0
FFFFFFFFFFC0
FFFFFFFFFFC0
FFFFFFFFFFC0
FFFFFFFFFFC0
FFFFFFFFFFC0
FFFFFFFFFFC0
FFFFFFFFFFC0
FFFFFFFFFFC0
FFFFFFFFFFC0
FFFFFFFFFFC0
FFFFFFFFFFC0
FFFFFFFFFFC0
FFFFFFFFFFC0
FFFFFFFFFFC0
FFFFFFFFFFC0
FFFFFFFFFFC0
FFFFFFFFFFC0
FFFFFFFFFFC0
FFFFFFFFFFC0
7FFFFFFFFF80
3FFFFFFFFF00
00007E000000
00007C000000
000078000000
0000E0000000
0000C0000000
000180000000
000100000000
000200000000
ENDCHAR
STARTCHAR 0075
ENCODING 117
SWIDTH 975 0
DWIDTH 42 0
BBX 42 33 0 -3
BITMAP
0000FFC00000
000FFFFC0000
007FFFFF8000
01FFFFFFC000
03FFFFFFF000
0FFFFFFFF800
1FFFFFFFFC00
1FFFFFFFFE00
3FFFFFFFFF00
7FFFFFFFFF80
7FFFFFFFFF80
FFFFFFFFFF80
FFFFFFFFFFC0
FFFFFFFFFFC0
FFFFFFFFFFC0
FFFFFFFFFFC0
FFFFFFFFFF80
7FFFFFFFFF80
7FFFFFFFFF80
3FFFFFFFFF00
1FFFFFFFFE00
1FFFFFFFFC00
07FFFFFFF800
03FFFFFFF000
00FFFFFFE000
003FFFFF8000
000FFFFC0000
00007FE00000
000003E00000
000001E00000
000000F00000
000000380000
000000060000
ENDCHAR
STARTCHAR 0076
ENCODING 118
SWIDTH 975 0
DWIDTH 42 0
BBX 42 35 0 -4
BITMAP
7FFFFFFFFF00
7FFFFFFFFF80
FFFFFFFFFFC0
FFFFFFFFFFC0
FFFFFFFFFFC0
FFFFFFFFFFC0
FFFFFFFFFFC0
FFFFFFFFFFC0
FFFFFFFFFFC0
FFFFFFFFFFC0
FFFFFFFFFFC0
FFFFFFFFFFC0
FFFFFFFFFFC0
FFFFFFFFFFC0
FFFFFFFFFFC0
FFFFFFFFFFC0
FFFFFFFFFFC0
FFFFFFFFFFC0
FFFFFFFFFFC0
FFFFFFFFFFC0
FFFFFFFFFFC0
FFFFFFFFFFC0
FFFFFFFFFFC0
FFFFFFFFFFC0
FFFFFFFFFFC0
7FFFFFFFFF80
3FFFFFFFFF00
00001F000000
00000F800000
000007800000
000003C00000
000000C00000
000000600000
000000200000
000000100000
ENDCHAR
STARTCHAR 0077
ENCODING 119
SWIDTH 975 0
DWIDTH 42 0
BBX 42 41 0 -7
BITMAP
00001E000000
00003F000000
00007F800000
00007F800000
00007F800000
01F0FF83E000
03FBFFE7F000
07FFFFFFF800
07FFFFFFF800
07FFFFFFF800
03FFFFFFF000
03FFFFFFF000
01FFFFFFE000
01FFFFFFC000
03FFC0FFC000
03FF007FC000
1FFF003FFE00
3FFE001FFF00
7FFE001FFF80
FFFC000FFFC0
FFFC000FFFC0
FFFC001FFF80
7FFE001FFF80
3FFE001FFF00
03FF003FC000
01FF807FC000
01FFC0FF8000
00FFFFFFC000
01FFFFFFE000
03FFFFFFF000
03FFFFFFF000
07FFFFFFF800
07FFFFFFF800
07FDFF8FF800
03F87F87F000
01E07F83E000
00007F800000
00007F800000
00007F800000
00003F000000
00001E000000
ENDCHAR
STARTCHAR 0078
ENCODING 120
SWIDTH 975 0
DWIDTH 42 0
BBX 42 35 0 -4
BITMAP
007000000000
0E7000000000
1FF000000000
0FFF00000000
0FFF00000000
7FFF00000000
FE1E00000000
7C1E01E00000
1C1F03E0E000
1C1F83F1F000
3E3F83FFF000
7FFF03FFF000
7FFCEFFFF000
07FDFFFFE000
07BDFFFFE000
0719FFFFFF80
0201FFC3FF80
00007F01FFC0
00007F00FF80
00007E00FF80
00007E00FE00
0001FE00F800
0003FE00F800
0003FF01FC00
0003FF83FF00
0003FFFFFF00
00001FFFFF00
00000FFFFF00
00000FFF8E00
00001FFF8000
00001F9F8000
00001F8F8000
00000F0F8000
0000000F8000
000000020000
ENDCHAR
STARTCHAR 0079
ENCODING 121
SWIDTH 975 0
DWIDTH 42 0
BBX 42 37 0 -5
BITMAP
0003F0000000
000FFE01F000
003FFF07FC00
007FFFC7FF00
00FF800FE000
01FF800FC000
03FF000FE180
03FF801FFF80
07FFC01FFF00
0FFFE01FFE00
3FDFE03FFC00
7F07F07FF800
FF03F87FE000
7F00FCFFE000
3F007FFFF000
1E003FFC0000
06001FF80000
00001FF00000
00003FF00000
00007FF80000
0000FFFC0000
0003FFFE0000
0007FCFF0000
000FF87F8000
001FF03FC000
003FE01FE000
00FFC00FF000
01FF8007F800
03FF0003FC00
07FE0003FE00
0FFC0001FF00
1FF80000FFC0
1FF000007F80
1FE000003F00
0FC000001E00
078000000C00
000000000800
ENDCHAR
STARTCHAR 007A
ENCODING 122
SWIDTH 975 0
DWIDTH 42 0
BBX 42 41 0 -7
BITMAP
000000400000
000000800000
000001800000
000003800000
000007800000
00000F000000
00001F000000
00001F000000
00001F000000
00001F000000
00003E000000
00003E000000
00003E000000
00003E000000
00003C000000
00007C000040
00007C000780
00007C00FF00
07F87C0FFE00
1FFCF9FFFC00
3FFEFFFFF800
7F7FFFFFF000
7C3FFFFF0000
F83FFFF00000
F83FFF000000
FFFFF0000000
7FFDF0000000
7FFBFC000000
3FF7FE000000
0FC7FE000000
000FFE000000
000F9F000000
001F0F000000
001F0F000000
001F1E000000
001F1E000000
001FFE000000
000FFC000000
000FF8000000
0007F0000000
0001E0000000
ENDCHAR
STARTCHAR 007B
ENCODING 123
SWIDTH 975 0
DWIDTH 42 0
BBX 42 39 0 -6
BITMAP
0000000FE000
0000000F8000
0000000FE000
00000007F000
00000007F800
00000004F800
000000027C00
000000003E00
000000001E00
000000000F00
000000000F00
000000000780
000000000780
000000000780
000000000380
000000000380
0000000003C0
0000000003C0
F000000003C0
F000000003C0
F00000000380
700000000380
700000000780
780000000780
780000000780
3C0000000F00
3C0000000F00
1E0000001E00
1F0000003E00
0F0000003C00
0F8000007C00
07C00001F800
03F00003F000
01FC000FE000
00FF807FC000
003FFFFF0000
001FFFFC0000
0003FFF00000
00003F000000
ENDCHAR
STARTCHAR 007C
ENCODING 124
SWIDTH 975 0
DWIDTH 42 0
BBX 42 39 0 -6
BITMAP
01FC00000000
007C00000000
00F800000000
03F800000000
03F800000000
07D000000000
0F9000000000
1F0000000000
1E0000000000
3C0000000000
3C0000000000
780000000000
780000000000
780000000000
700000000000
F00000000000
F00000000000
F00000000000
F000000003C0
F000000003C0
F00000000380
700000000380
780000000780
780000000780
780000000780
3C0000000F00
3C0000000F00
3E0000001E00
1E0000003E00
0F0000003C00
0F8000007C00
07C00000F800
03F00003F000
01FC000FE000
00FF003FC000
003FFFFF8000
001FFFFE0000
0007FFF00000
00007F800000
ENDCHAR
STARTCHAR 007D
ENCODING 125
SWIDTH 487 0
DWIDTH 21 0
BBX 0 0 0 0
BITMAP
ENDCHAR
STARTCHAR 007E
ENCODING 126
SWIDTH 487 0
DWIDTH 21 0
BBX 0 0 0 0
BITMAP
ENDCHAR
STARTCHAR 00A0
ENCODING 160
SWIDTH 255 0
DWIDTH 11 0
BBX 0 0 0 0
BITMAP
ENDCHAR
STARTCHAR 00A1
ENCODING 161
SWIDTH 325 0
DWIDTH 14 0
BBX 0 0 0 0
BITMAP
ENDCHAR
STARTCHAR 00A2
ENCODING 162
SWIDTH 557 0
DWIDTH 24 0
BBX 0 0 0 0
BITMAP
ENDCHAR
STARTCHAR 00A3
ENCODING 163
SWIDTH 487 0
DWIDTH 21 0
BBX 0 0 0 0
BITMAP
ENDCHAR
STARTCHAR 00A4
ENCODING 164
SWIDTH 487 0
DWIDTH 21 0
BBX 0 0 0 0
BITMAP
ENDCHAR
STARTCHAR 00A5
ENCODING 165
SWIDTH 627 0
DWIDTH 27 0
BBX 0 0 0 0
BITMAP
ENDCHAR
STARTCHAR 00A6
ENCODING 166
SWIDTH 487 0
DWIDTH 21 0
BBX 0 0 0 0
BITMAP
ENDCHAR
STARTCHAR 00A7
ENCODING 167
SWIDTH 487 0
DWIDTH 21 0
BBX 0 0 0 0
BITMAP
ENDCHAR
STARTCHAR 00A8
ENCODING 168
SWIDTH 510 0
DWIDTH 22 0
BBX 0 0 0 0
BITMAP
ENDCHAR
STARTCHAR 00A9
ENCODING 169
SWIDTH 812 0
DWIDTH 35 0
BBX 0 0 0 0
BITMAP
ENDCHAR
STARTCHAR 00AA
ENCODING 170
SWIDTH 325 0
DWIDTH 14 0
BBX 0 0 0 0
BITMAP
ENDCHAR
STARTCHAR 00AB
ENCODING 171
SWIDTH 464 0
DWIDTH 20 0
BBX 0 0 0 0
BITMAP
ENDCHAR
STARTCHAR 00AC
ENCODING 172
SWIDTH 487 0
DWIDTH 21 0
BBX 0 0 0 0
BITMAP
ENDCHAR
STARTCHAR 00AD
ENCODING 173
SWIDTH 975 0
DWIDTH 42 0
BBX 42 41 0 -7
BITMAP
0001FFE00000
000FFFFC0000
003FC1FF0000
007C001F8000
00F00003C000
01E00001E000
038000007000
07C000103800
0EE000181C00
1E7000381E00
1C3800780E00
381C00F80700
380E01F80700
700703F80380
700007F80380
7007FFF80380
6007FFF80180
E007FFF80180
E007FFF801C0
E007FFF801C0
E007FFF801C0
E007FFF801C0
E007FFF801C0
6007FFF80180
6007FFF80380
700007F80380
700003F80380
300003F80700
380001FA0700
380000FB0F00
1C00007B8E00
0E000039DC00
0F000018FC00
078000007800
03C00000F000
01E00001E000
00F80007C000
007F003F0000
001FFFFE0000
0007FFF80000
0000FF800000
ENDCHAR
STARTCHAR 00AE
ENCODING 174
SWIDTH 812 0
DWIDTH 35 0
BBX 0 0 0 0
BITMAP
ENDCHAR
STARTCHAR 00AF
ENCODING 175
SWIDTH 325 0
DWIDTH 14 0
BBX 0 0 0 0
BITMAP
ENDCHAR
STARTCHAR 00B0
ENCODING 176
SWIDTH 325 0
DWIDTH 14 0
BBX 0 0 0 0
BITMAP
ENDCHAR
STARTCHAR 00B1
ENCODING 177
SWIDTH 487 0
DWIDTH 21 0
BBX 0 0 0 0
BITMAP
ENDCHAR
STARTCHAR 00B2
ENCODING 178
SWIDTH 487 0
DWIDTH 21 0
BBX 0 0 0 0
BITMAP
ENDCHAR
STARTCHAR 00B3
ENCODING 179
SWIDTH 487 0
DWIDTH 21 0
BBX 0 0 0 0
BITMAP
ENDCHAR
STARTCHAR 00B4
ENCODING 180
SWIDTH 510 0
DWIDTH 22 0
BBX 0 0 0 0
BITMAP
ENDCHAR
STARTCHAR 00B5
ENCODING 181
SWIDTH 580 0
DWIDTH 25 0
BBX 0 0 0 0
BITMAP
ENDCHAR
STARTCHAR 00B6
ENCODING 182
SWIDTH 510 0
DWIDTH 22 0
BBX 0 0 0 0
BITMAP
ENDCHAR
STARTCHAR 00B7
ENCODING 183
SWIDTH 255 0
DWIDTH 11 0
BBX 0 0 0 0
BITMAP
ENDCHAR
STARTCHAR 00B8
ENCODING 184
SWIDTH 510 0
DWIDTH 22 0
BBX 0 0 0 0
BITMAP
ENDCHAR
STARTCHAR 00B9
ENCODING 185
SWIDTH 487 0
DWIDTH 21 0
BBX 0 0 0 0
BITMAP
ENDCHAR
STARTCHAR 00BA
ENCODING 186
SWIDTH 348 0
DWIDTH 15 0
BBX 0 0 0 0
BITMAP
ENDCHAR
STARTCHAR 00BB
ENCODING 187
SWIDTH 464 0
DWIDTH 20 0
BBX 0 0 0 0
BITMAP
ENDCHAR
STARTCHAR 00BC
ENCODING 188
SWIDTH 836 0
DWIDTH 36 0
BBX 0 0 0 0
BITMAP
ENDCHAR
STARTCHAR 00BD
ENCODING 189
SWIDTH 952 0
DWIDTH 41 0
BBX 0 0 0 0
BITMAP
ENDCHAR
STARTCHAR 00BE
ENCODING 190
SWIDTH 836 0
DWIDTH 36 0
BBX 0 0 0 0
BITMAP
ENDCHAR
STARTCHAR 00BF
ENCODING 191
SWIDTH 371 0
DWIDTH 16 0
BBX 0 0 0 0
BITMAP
ENDCHAR
STARTCHAR 00C0
ENCODING 192
SWIDTH 743 0
DWIDTH 32 0
BBX 0 0 0 0
BITMAP
ENDCHAR
STARTCHAR 00C1
ENCODING 193
SWIDTH 743 0
DWIDTH 32 0
BBX 0 0 0 0
BITMAP
ENDCHAR
STARTCHAR 00C2
ENCODING 194
SWIDTH 743 0
DWIDTH 32 0
BBX 0 0 0 0
BITMAP
ENDCHAR
STARTCHAR 00C3
ENCODING 195
SWIDTH 743 0
DWIDTH 32 0
BBX 0 0 0 0
BITMAP
ENDCHAR
STARTCHAR 00C4
ENCODING 196
SWIDTH 743 0
DWIDTH 32 0
BBX 0 0 0 0
BITMAP
ENDCHAR
STARTCHAR 00C5
ENCODING 197
SWIDTH 743 0
DWIDTH 32 0
BBX 0 0 0 0
BITMAP
ENDCHAR
STARTCHAR 00C6
ENCODING 198
SWIDTH 1021 0
DWIDTH 44 0
BBX 0 0 0 0
BITMAP
ENDCHAR
STARTCHAR 00C7
ENCODING 199
SWIDTH 673 0
DWIDTH 29 0
BBX 0 0 0 0
BITMAP
ENDCHAR
STARTCHAR 00C8
ENCODING 200
SWIDTH 557 0
DWIDTH 24 0
BBX 0 0 0 0
BITMAP
ENDCHAR
STARTCHAR 00C9
ENCODING 201
SWIDTH 557 0
DWIDTH 24 0
BBX 0 0 0 0
BITMAP
ENDCHAR
STARTCHAR 00CA
ENCODING 202
SWIDTH 557 0
DWIDTH 24 0
BBX 0 0 0 0
BITMAP
ENDCHAR
STARTCHAR 00CB
ENCODING 203
SWIDTH 557 0
DWIDTH 24 0
BBX 0 0 0 0
BITMAP
ENDCHAR
STARTCHAR 00CC
ENCODING 204
SWIDTH 325 0
DWIDTH 14 0
BBX 0 0 0 0
BITMAP
ENDCHAR
STARTCHAR 00CD
ENCODING 205
SWIDTH 325 0
DWIDTH 14 0
BBX 0 0 0 0
BITMAP
ENDCHAR
STARTCHAR 00CE
ENCODING 206
SWIDTH 325 0
DWIDTH 14 0
BBX 0 0 0 0
BITMAP
ENDCHAR
STARTCHAR 00CF
ENCODING 207
SWIDTH 325 0
DWIDTH 14 0
BBX 0 0 0 0
BITMAP
ENDCHAR
STARTCHAR 00D0
ENCODING 208
SWIDTH 743 0
DWIDTH 32 0
BBX 0 0 0 0
BITMAP
ENDCHAR
STARTCHAR 00D1
ENCODING 209
SWIDTH 766 0
DWIDTH 33 0
BBX 0 0 0 0
BITMAP
ENDCHAR
STARTCHAR 00D2
ENCODING 210
SWIDTH 789 0
DWIDTH 34 0
BBX 0 0 0 0
BITMAP
ENDCHAR
STARTCHAR 00D3
ENCODING 211
SWIDTH 789 0
DWIDTH 34 0
BBX 0 0 0 0
BITMAP
ENDCHAR
STARTCHAR 00D4
ENCODING 212
SWIDTH 789 0
DWIDTH 34 0
BBX 0 0 0 0
BITMAP
ENDCHAR
STARTCHAR 00D5
ENCODING 213
SWIDTH 789 0
DWIDTH 34 0
BBX 0 0 0 0
BITMAP
ENDCHAR
STARTCHAR 00D6
ENCODING 214
SWIDTH 789 0
DWIDTH 34 0
BBX 0 0 0 0
BITMAP
ENDCHAR
STARTCHAR 00D7
ENCODING 215
SWIDTH 487 0
DWIDTH 21 0
BBX 0 0 0 0
BITMAP
ENDCHAR
STARTCHAR 00D8
ENCODING 216
SWIDTH 789 0
DWIDTH 34 0
BBX 0 0 0 0
BITMAP
ENDCHAR
STARTCHAR 00D9
ENCODING 217
SWIDTH 743 0
DWIDTH 32 0
BBX 0 0 0 0
BITMAP
ENDCHAR
STARTCHAR 00DA
ENCODING 218
SWIDTH 743 0
DWIDTH 32 0
BBX 0 0 0 0
BITMAP
ENDCHAR
STARTCHAR 00DB
ENCODING 219
SWIDTH 743 0
DWIDTH 32 0
BBX 0 0 0 0
BITMAP
ENDCHAR
STARTCHAR 00DC
ENCODING 220
SWIDTH 743 0
DWIDTH 32 0
BBX 0 0 0 0
BITMAP
ENDCHAR
STARTCHAR 00DD
ENCODING 221
SWIDTH 603 0
DWIDTH 26 0
BBX 0 0 0 0
BITMAP
ENDCHAR
STARTCHAR 00DE
ENCODING 222
SWIDTH 557 0
DWIDTH 24 0
BBX 0 0 0 0
BITMAP
ENDCHAR
STARTCHAR 00DF
ENCODING 223
SWIDTH 603 0
DWIDTH 26 0
BBX 0 0 0 0
BITMAP
ENDCHAR
STARTCHAR 00E0
ENCODING 224
SWIDTH 441 0
DWIDTH 19 0
BBX 0 0 0 0
BITMAP
ENDCHAR
STARTCHAR 00E1
ENCODING 225
SWIDTH 441 0
DWIDTH 19 0
BBX 0 0 0 0
BITMAP
ENDCHAR
STARTCHAR 00E2
ENCODING 226
SWIDTH 441 0
DWIDTH 19 0
BBX 0 0 0 0
BITMAP
ENDCHAR
STARTCHAR 00E3
ENCODING 227
SWIDTH 441 0
DWIDTH 19 0
BBX 0 0 0 0
BITMAP
ENDCHAR
STARTCHAR 00E4
ENCODING 228
SWIDTH 441 0
DWIDTH 19 0
BBX 0 0 0 0
BITMAP
ENDCHAR
STARTCHAR 00E5
ENCODING 229
SWIDTH 441 0
DWIDTH 19 0
BBX 0 0 0 0
BITMAP
ENDCHAR
STARTCHAR 00E6
ENCODING 230
SWIDTH 720 0
DWIDTH 31 0
BBX 0 0 0 0
BITMAP
ENDCHAR
STARTCHAR 00E7
ENCODING 231
SWIDTH 441 0
DWIDTH 19 0
BBX 0 0 0 0
BITMAP
ENDCHAR
STARTCHAR 00E8
ENCODING 232
SWIDTH 441 0
DWIDTH 19 0
BBX 0 0 0 0
BITMAP
ENDCHAR
STARTCHAR 00E9
ENCODING 233
SWIDTH 441 0
DWIDTH 19 0
BBX 0 0 0 0
BITMAP
ENDCHAR
STARTCHAR 00EA
ENCODING 234
SWIDTH 441 0
DWIDTH 19 0
BBX 0 0 0 0
BITMAP
ENDCHAR
STARTCHAR 00EB
ENCODING 235
SWIDTH 441 0
DWIDTH 19 0
BBX 0 0 0 0
BITMAP
ENDCHAR
STARTCHAR 00EC
ENCODING 236
SWIDTH 255 0
DWIDTH 11 0
BBX 0 0 0 0
BITMAP
ENDCHAR
STARTCHAR 00ED
ENCODING 237
SWIDTH 255 0
DWIDTH 11 0
BBX 0 0 0 0
BITMAP
ENDCHAR
STARTCHAR 00EE
ENCODING 238
SWIDTH 255 0
DWIDTH 11 0
BBX 0 0 0 0
BITMAP
ENDCHAR
STARTCHAR 00EF
ENCODING 239
SWIDTH 255 0
DWIDTH 11 0
BBX 0 0 0 0
BITMAP
ENDCHAR
STARTCHAR 00F0
ENCODING 240
SWIDTH 557 0
DWIDTH 24 0
BBX 0 0 0 0
BITMAP
ENDCHAR
STARTCHAR 00F1
ENCODING 241
SWIDTH 534 0
DWIDTH 23 0
BBX 0 0 0 0
BITMAP
ENDCHAR
STARTCHAR 00F2
ENCODING 242
SWIDTH 487 0
DWIDTH 21 0
BBX 0 0 0 0
BITMAP
ENDCHAR
STARTCHAR 00F3
ENCODING 243
SWIDTH 487 0
DWIDTH 21 0
BBX 0 0 0 0
BITMAP
ENDCHAR
STARTCHAR 00F4
ENCODING 244
SWIDTH 487 0
DWIDTH 21 0
BBX 0 0 0 0
BITMAP
ENDCHAR
STARTCHAR 00F5
ENCODING 245
SWIDTH 487 0
DWIDTH 21 0
BBX 0 0 0 0
BITMAP
ENDCHAR
STARTCHAR 00F6
ENCODING 246
SWIDTH 487 0
DWIDTH 21 0
BBX 0 0 0 0
BITMAP
ENDCHAR
STARTCHAR 00F7
ENCODING 247
SWIDTH 487 0
DWIDTH 21 0
BBX 0 0 0 0
BITMAP
ENDCHAR
STARTCHAR 00F8
ENCODING 248
SWIDTH 487 0
DWIDTH 21 0
BBX 0 0 0 0
BITMAP
ENDCHAR
STARTCHAR 00F9
ENCODING 249
SWIDTH 510 0
DWIDTH 22 0
BBX 0 0 0 0
BITMAP
ENDCHAR
STARTCHAR 00FA
ENCODING 250
SWIDTH 510 0
DWIDTH 22 0
BBX 0 0 0 0
BITMAP
ENDCHAR
STARTCHAR 00FB
ENCODING 251
SWIDTH 510 0
DWIDTH 22 0
BBX 0 0 0 0
BITMAP
ENDCHAR
STARTCHAR 00FC
ENCODING 252
SWIDTH 510 0
DWIDTH 22 0
BBX 0 0 0 0
BITMAP
ENDCHAR
STARTCHAR 00FD
ENCODING 253
SWIDTH 418 0
DWIDTH 18 0
BBX 0 0 0 0
BITMAP
ENDCHAR
STARTCHAR 00FE
ENCODING 254
SWIDTH 487 0
DWIDTH 21 0
BBX 0 0 0 0
BITMAP
ENDCHAR
STARTCHAR 00FF
ENCODING 255
SWIDTH 418 0
DWIDTH 18 0
BBX 0 0 0 0
BITMAP
ENDCHAR
STARTCHAR 0131
ENCODING 305
SWIDTH 255 0
DWIDTH 11 0
BBX 0 0 0 0
BITMAP
ENDCHAR
STARTCHAR 02C6
ENCODING 710
SWIDTH 510 0
DWIDTH 22 0
BBX 0 0 0 0
BITMAP
ENDCHAR
STARTCHAR 02C7
ENCODING 711
SWIDTH 510 0
DWIDTH 22 0
BBX 0 0 0 0
BITMAP
ENDCHAR
STARTCHAR 02C9
ENCODING 713
SWIDTH 510 0
DWIDTH 22 0
BBX 0 0 0 0
BITMAP
ENDCHAR
STARTCHAR 02D8
ENCODING 728
SWIDTH 510 0
DWIDTH 22 0
BBX 0 0 0 0
BITMAP
ENDCHAR
STARTCHAR 02D9
ENCODING 729
SWIDTH 510 0
DWIDTH 22 0
BBX 0 0 0 0
BITMAP
ENDCHAR
STARTCHAR 02DA
ENCODING 730
SWIDTH 510 0
DWIDTH 22 0
BBX 0 0 0 0
BITMAP
ENDCHAR
STARTCHAR 02DB
ENCODING 731
SWIDTH 510 0
DWIDTH 22 0
BBX 0 0 0 0
BITMAP
ENDCHAR
STARTCHAR 02DC
ENCODING 732
SWIDTH 510 0
DWIDTH 22 0
BBX 0 0 0 0
BITMAP
ENDCHAR
STARTCHAR 02DD
ENCODING 733
SWIDTH 510 0
DWIDTH 22 0
BBX 0 0 0 0
BITMAP
ENDCHAR
STARTCHAR 037E
ENCODING 894
SWIDTH 975 0
DWIDTH 42 0
BBX 42 41 0 -7
BITMAP
00001E000000
00001E000000
00001E000000
00001E000000
00001E000000
00001E000000
00001E000000
00001E000000
00001E000000
00001E000000
00001E000000
00001E000000
00001E000000
00001E000000
00001E000000
00001E000000
00001E000000
00001E000000
00001E000000
FFFFFFFFFFC0
FFFFFFFFFFC0
FFFFFFFFFFC0
00001E000000
00001E000000
00001E000000
00001E000000
00001E000000
00001E000000
00001E000000
00001E000000
00001E000000
00001E000000
00001E000000
00001E000000
00001E000000
00001E000000
00001E000000
00001E000000
00001E000000
00001E000000
00001E000000
ENDCHAR
STARTCHAR 2013
ENCODING 8211
SWIDTH 534 0
DWIDTH 23 0
BBX 0 0 0 0
BITMAP
ENDCHAR
STARTCHAR 2014
ENCODING 8212
SWIDTH 998 0
DWIDTH 43 0
BBX 0 0 0 0
BITMAP
ENDCHAR
STARTCHAR 2018
ENCODING 8216
SWIDTH 278 0
DWIDTH 12 0
BBX 0 0 0 0
BITMAP
ENDCHAR
STARTCHAR 2019
ENCODING 8217
SWIDTH 278 0
DWIDTH 12 0
BBX 0 0 0 0
BITMAP
ENDCHAR
STARTCHAR 201A
ENCODING 8218
SWIDTH 278 0
DWIDTH 12 0
BBX 0 0 0 0
BITMAP
ENDCHAR
STARTCHAR 201C
ENCODING 8220
SWIDTH 441 0
DWIDTH 19 0
BBX 0 0 0 0
BITMAP
ENDCHAR
STARTCHAR 201D
ENCODING 8221
SWIDTH 441 0
DWIDTH 19 0
BBX 0 0 0 0
BITMAP
ENDCHAR
STARTCHAR 201E
ENCODING 8222
SWIDTH 441 0
DWIDTH 19 0
BBX 0 0 0 0
BITMAP
ENDCHAR
STARTCHAR 2020
ENCODING 8224
SWIDTH 487 0
DWIDTH 21 0
BBX 0 0 0 0
BITMAP
ENDCHAR
STARTCHAR 2021
ENCODING 8225
SWIDTH 487 0
DWIDTH 21 0
BBX 0 0 0 0
BITMAP
ENDCHAR
STARTCHAR 2022
ENCODING 8226
SWIDTH 510 0
DWIDTH 22 0
BBX 0 0 0 0
BITMAP
ENDCHAR
STARTCHAR 2026
ENCODING 8230
SWIDTH 998 0
DWIDTH 43 0
BBX 0 0 0 0
BITMAP
ENDCHAR
STARTCHAR 2039
ENCODING 8249
SWIDTH 301 0
DWIDTH 13 0
BBX 0 0 0 0
BITMAP
ENDCHAR
STARTCHAR 203A
ENCODING 8250
SWIDTH 301 0
DWIDTH 13 0
BBX 0 0 0 0
BITMAP
ENDCHAR
STARTCHAR 2044
ENCODING 8260
SWIDTH 162 0
DWIDTH 7 0
BBX 0 0 0 0
BITMAP
ENDCHAR
STARTCHAR 20A3
ENCODING 8355
SWIDTH 487 0
DWIDTH 21 0
BBX 0 0 0 0
BITMAP
ENDCHAR
STARTCHAR 20A4
ENCODING 8356
SWIDTH 487 0
DWIDTH 21 0
BBX 0 0 0 0
BITMAP
ENDCHAR
STARTCHAR 20A7
ENCODING 8359
SWIDTH 998 0
DWIDTH 43 0
BBX 0 0 0 0
BITMAP
ENDCHAR
STARTCHAR 20AC
ENCODING 8364
SWIDTH 487 0
DWIDTH 21 0
BBX 0 0 0 0
BITMAP
ENDCHAR
STARTCHAR 2116
ENCODING 8470
SWIDTH 1114 0
DWIDTH 48 0
BBX 0 0 0 0
BITMAP
ENDCHAR
STARTCHAR 2122
ENCODING 8482
SWIDTH 720 0
DWIDTH 31 0
BBX 0 0 0 0
BITMAP
ENDCHAR
STARTCHAR 2202
ENCODING 8706
SWIDTH 487 0
DWIDTH 21 0
BBX 0 0 0 0
BITMAP
ENDCHAR
STARTCHAR 2206
ENCODING 8710
SWIDTH 534 0
DWIDTH 23 0
BBX 0 0 0 0
BITMAP
ENDCHAR
STARTCHAR 220F
ENCODING 8719
SWIDTH 743 0
DWIDTH 32 0
BBX 0 0 0 0
BITMAP
ENDCHAR
STARTCHAR 2211
ENCODING 8721
SWIDTH 580 0
DWIDTH 25 0
BBX 0 0 0 0
BITMAP
ENDCHAR
STARTCHAR 2212
ENCODING 8722
SWIDTH 487 0
DWIDTH 21 0
BBX 0 0 0 0
BITMAP
ENDCHAR
STARTCHAR 2215
ENCODING 8725
SWIDTH 162 0
DWIDTH 7 0
BBX 0 0 0 0
BITMAP
ENDCHAR
STARTCHAR 2219
ENCODING 8729
SWIDTH 255 0
DWIDTH 11 0
BBX 0 0 0 0
BITMAP
ENDCHAR
STARTCHAR 221A
ENCODING 8730
SWIDTH 487 0
DWIDTH 21 0
BBX 0 0 0 0
BITMAP
ENDCHAR
STARTCHAR 221E
ENCODING 8734
SWIDTH 487 0
DWIDTH 21 0
BBX 0 0 0 0
BITMAP
ENDCHAR
STARTCHAR 222B
ENCODING 8747
SWIDTH 325 0
DWIDTH 14 0
BBX 0 0 0 0
BITMAP
ENDCHAR
STARTCHAR 2248
ENCODING 8776
SWIDTH 487 0
DWIDTH 21 0
BBX 0 0 0 0
BITMAP
ENDCHAR
STARTCHAR 2264
ENCODING 8804
SWIDTH 487 0
DWIDTH 21 0
BBX 0 0 0 0
BITMAP
ENDCHAR
STARTCHAR 2265
ENCODING 8805
SWIDTH 487 0
DWIDTH 21 0
BBX 0 0 0 0
BITMAP
ENDCHAR
STARTCHAR F001
ENCODING 61441
SWIDTH 534 0
DWIDTH 23 0
BBX 0 0 0 0
BITMAP
ENDCHAR
STARTCHAR F002
ENCODING 61442
SWIDTH 534 0
DWIDTH 23 0
BBX 0 0 0 0
BITMAP
ENDCHAR
STARTCHAR FB01
ENCODING 64257
SWIDTH 534 0
DWIDTH 23 0
BBX 0 0 0 0
BITMAP
ENDCHAR
STARTCHAR FB02
ENCODING 64258
SWIDTH 534 0
DWIDTH 23 0
BBX 0 0 0 0
BITMAP
ENDCHAR
ENDFONT
